<mxfile host="app.diagrams.net" modified="2024-04-15T00:41:27.398Z" agent="Mozilla/5.0 (Macintosh; Intel Mac OS X 10_15_7) AppleWebKit/605.1.15 (KHTML, like Gecko) Version/17.4.1 Safari/605.1.15" etag="pSX326UM159gE_cG5veT" version="24.2.5" type="github" pages="5">
  <diagram name="Casos de Uso" id="CHlxtGxeT-pBG5KGYVHJ">
    <mxGraphModel dx="1293" dy="744" grid="1" gridSize="10" guides="1" tooltips="1" connect="1" arrows="1" fold="1" page="1" pageScale="1" pageWidth="827" pageHeight="1169" math="0" shadow="0">
      <root>
        <mxCell id="0" />
        <mxCell id="1" parent="0" />
        <mxCell id="hKfD_OgSRdeKxgfNmtOg-16" value="Uusario (consumidor)" style="shape=umlActor;verticalLabelPosition=bottom;verticalAlign=top;html=1;outlineConnect=0;" vertex="1" parent="1">
          <mxGeometry x="110" y="300" width="30" height="60" as="geometry" />
        </mxCell>
        <mxCell id="hKfD_OgSRdeKxgfNmtOg-20" value="Admin" style="shape=umlActor;verticalLabelPosition=bottom;verticalAlign=top;html=1;outlineConnect=0;" vertex="1" parent="1">
          <mxGeometry x="740" y="130" width="30" height="60" as="geometry" />
        </mxCell>
        <mxCell id="hKfD_OgSRdeKxgfNmtOg-21" value="Usuario (publicador)" style="shape=umlActor;verticalLabelPosition=bottom;verticalAlign=top;html=1;outlineConnect=0;" vertex="1" parent="1">
          <mxGeometry x="120" y="450" width="30" height="60" as="geometry" />
        </mxCell>
        <mxCell id="hKfD_OgSRdeKxgfNmtOg-23" value="" style="rounded=0;whiteSpace=wrap;html=1;" vertex="1" parent="1">
          <mxGeometry x="240" y="120" width="230" height="700" as="geometry" />
        </mxCell>
        <mxCell id="hKfD_OgSRdeKxgfNmtOg-24" value="Web App (simplificada)" style="text;html=1;align=center;verticalAlign=middle;resizable=0;points=[];autosize=1;strokeColor=none;fillColor=none;" vertex="1" parent="1">
          <mxGeometry x="290" y="90" width="150" height="30" as="geometry" />
        </mxCell>
        <mxCell id="hKfD_OgSRdeKxgfNmtOg-25" value="" style="rounded=0;whiteSpace=wrap;html=1;" vertex="1" parent="1">
          <mxGeometry x="490" y="120" width="230" height="100" as="geometry" />
        </mxCell>
        <mxCell id="hKfD_OgSRdeKxgfNmtOg-27" value="Admin Console" style="text;html=1;align=center;verticalAlign=middle;resizable=0;points=[];autosize=1;strokeColor=none;fillColor=none;" vertex="1" parent="1">
          <mxGeometry x="560" y="90" width="100" height="30" as="geometry" />
        </mxCell>
        <mxCell id="hKfD_OgSRdeKxgfNmtOg-36" value="" style="endArrow=classic;html=1;rounded=0;exitX=0.5;exitY=1;exitDx=0;exitDy=0;entryX=0.5;entryY=0;entryDx=0;entryDy=0;" edge="1" parent="1">
          <mxGeometry width="50" height="50" relative="1" as="geometry">
            <mxPoint x="365" y="410" as="sourcePoint" />
            <mxPoint x="365" y="450" as="targetPoint" />
          </mxGeometry>
        </mxCell>
        <mxCell id="hKfD_OgSRdeKxgfNmtOg-37" value="" style="endArrow=none;html=1;rounded=0;entryX=0;entryY=0.5;entryDx=0;entryDy=0;" edge="1" parent="1" source="hKfD_OgSRdeKxgfNmtOg-21">
          <mxGeometry width="50" height="50" relative="1" as="geometry">
            <mxPoint x="390" y="390" as="sourcePoint" />
            <mxPoint x="305" y="280" as="targetPoint" />
          </mxGeometry>
        </mxCell>
        <mxCell id="hKfD_OgSRdeKxgfNmtOg-39" value="" style="endArrow=classic;html=1;rounded=0;exitX=0;exitY=0.5;exitDx=0;exitDy=0;entryX=1;entryY=0.5;entryDx=0;entryDy=0;" edge="1" parent="1">
          <mxGeometry width="50" height="50" relative="1" as="geometry">
            <mxPoint x="550" y="170" as="sourcePoint" />
            <mxPoint x="425" y="170" as="targetPoint" />
          </mxGeometry>
        </mxCell>
        <mxCell id="hKfD_OgSRdeKxgfNmtOg-40" value="updates" style="edgeLabel;html=1;align=center;verticalAlign=middle;resizable=0;points=[];" vertex="1" connectable="0" parent="hKfD_OgSRdeKxgfNmtOg-39">
          <mxGeometry x="0.376" relative="1" as="geometry">
            <mxPoint as="offset" />
          </mxGeometry>
        </mxCell>
        <mxCell id="hKfD_OgSRdeKxgfNmtOg-41" value="" style="endArrow=none;html=1;rounded=0;entryX=0.983;entryY=0.4;entryDx=0;entryDy=0;entryPerimeter=0;" edge="1" parent="1" source="hKfD_OgSRdeKxgfNmtOg-20">
          <mxGeometry width="50" height="50" relative="1" as="geometry">
            <mxPoint x="390" y="390" as="sourcePoint" />
            <mxPoint x="667.96" y="164" as="targetPoint" />
          </mxGeometry>
        </mxCell>
        <mxCell id="hKfD_OgSRdeKxgfNmtOg-43" value="Administrar Uusarios" style="ellipse;whiteSpace=wrap;html=1;" vertex="1" parent="1">
          <mxGeometry x="550" y="130" width="120" height="80" as="geometry" />
        </mxCell>
        <mxCell id="hKfD_OgSRdeKxgfNmtOg-44" value="Cadastro" style="ellipse;whiteSpace=wrap;html=1;" vertex="1" parent="1">
          <mxGeometry x="305" y="130" width="120" height="80" as="geometry" />
        </mxCell>
        <mxCell id="hKfD_OgSRdeKxgfNmtOg-45" value="Login" style="ellipse;whiteSpace=wrap;html=1;" vertex="1" parent="1">
          <mxGeometry x="305" y="240" width="120" height="80" as="geometry" />
        </mxCell>
        <mxCell id="hKfD_OgSRdeKxgfNmtOg-46" value="Consultar Receitas" style="ellipse;whiteSpace=wrap;html=1;" vertex="1" parent="1">
          <mxGeometry x="305" y="330" width="120" height="80" as="geometry" />
        </mxCell>
        <mxCell id="hKfD_OgSRdeKxgfNmtOg-47" value="Criar/Atualizar Receitas" style="ellipse;whiteSpace=wrap;html=1;" vertex="1" parent="1">
          <mxGeometry x="305" y="450" width="120" height="80" as="geometry" />
        </mxCell>
        <mxCell id="hKfD_OgSRdeKxgfNmtOg-48" value="Discutir no Forum de Usuarios" style="ellipse;whiteSpace=wrap;html=1;" vertex="1" parent="1">
          <mxGeometry x="305" y="545" width="120" height="80" as="geometry" />
        </mxCell>
        <mxCell id="hKfD_OgSRdeKxgfNmtOg-49" value="" style="endArrow=none;html=1;rounded=0;entryX=0;entryY=0.5;entryDx=0;entryDy=0;exitX=1;exitY=0.3333333333333333;exitDx=0;exitDy=0;exitPerimeter=0;" edge="1" parent="1" source="hKfD_OgSRdeKxgfNmtOg-16" target="hKfD_OgSRdeKxgfNmtOg-44">
          <mxGeometry width="50" height="50" relative="1" as="geometry">
            <mxPoint x="190" y="150" as="sourcePoint" />
            <mxPoint x="440" y="340" as="targetPoint" />
          </mxGeometry>
        </mxCell>
        <mxCell id="hKfD_OgSRdeKxgfNmtOg-50" value="" style="endArrow=none;dashed=1;html=1;dashPattern=1 3;strokeWidth=2;rounded=0;exitX=0.5;exitY=1;exitDx=0;exitDy=0;entryX=0.5;entryY=0;entryDx=0;entryDy=0;" edge="1" parent="1" source="hKfD_OgSRdeKxgfNmtOg-44" target="hKfD_OgSRdeKxgfNmtOg-45">
          <mxGeometry width="50" height="50" relative="1" as="geometry">
            <mxPoint x="390" y="390" as="sourcePoint" />
            <mxPoint x="440" y="340" as="targetPoint" />
          </mxGeometry>
        </mxCell>
        <mxCell id="hKfD_OgSRdeKxgfNmtOg-51" value="" style="endArrow=none;html=1;rounded=0;entryX=0;entryY=0.5;entryDx=0;entryDy=0;exitX=1;exitY=0.3333333333333333;exitDx=0;exitDy=0;exitPerimeter=0;" edge="1" parent="1" source="hKfD_OgSRdeKxgfNmtOg-16" target="hKfD_OgSRdeKxgfNmtOg-45">
          <mxGeometry width="50" height="50" relative="1" as="geometry">
            <mxPoint x="200" y="180" as="sourcePoint" />
            <mxPoint x="440" y="340" as="targetPoint" />
          </mxGeometry>
        </mxCell>
        <mxCell id="hKfD_OgSRdeKxgfNmtOg-52" value="" style="endArrow=none;html=1;rounded=0;entryX=0;entryY=0.5;entryDx=0;entryDy=0;" edge="1" parent="1" source="hKfD_OgSRdeKxgfNmtOg-21" target="hKfD_OgSRdeKxgfNmtOg-44">
          <mxGeometry width="50" height="50" relative="1" as="geometry">
            <mxPoint x="200" y="390" as="sourcePoint" />
            <mxPoint x="440" y="340" as="targetPoint" />
          </mxGeometry>
        </mxCell>
        <mxCell id="hKfD_OgSRdeKxgfNmtOg-53" value="" style="endArrow=none;html=1;rounded=0;entryX=0;entryY=0.5;entryDx=0;entryDy=0;exitX=1;exitY=0.3333333333333333;exitDx=0;exitDy=0;exitPerimeter=0;" edge="1" parent="1" source="hKfD_OgSRdeKxgfNmtOg-16" target="hKfD_OgSRdeKxgfNmtOg-46">
          <mxGeometry width="50" height="50" relative="1" as="geometry">
            <mxPoint x="200" y="180" as="sourcePoint" />
            <mxPoint x="440" y="340" as="targetPoint" />
          </mxGeometry>
        </mxCell>
        <mxCell id="hKfD_OgSRdeKxgfNmtOg-54" value="" style="endArrow=none;html=1;rounded=0;entryX=-0.025;entryY=0.425;entryDx=0;entryDy=0;entryPerimeter=0;exitX=1;exitY=0.3333333333333333;exitDx=0;exitDy=0;exitPerimeter=0;" edge="1" parent="1" source="hKfD_OgSRdeKxgfNmtOg-21" target="hKfD_OgSRdeKxgfNmtOg-47">
          <mxGeometry width="50" height="50" relative="1" as="geometry">
            <mxPoint x="150" y="470" as="sourcePoint" />
            <mxPoint x="440" y="340" as="targetPoint" />
          </mxGeometry>
        </mxCell>
        <mxCell id="hKfD_OgSRdeKxgfNmtOg-55" value="" style="endArrow=none;html=1;rounded=0;" edge="1" parent="1" source="hKfD_OgSRdeKxgfNmtOg-21">
          <mxGeometry width="50" height="50" relative="1" as="geometry">
            <mxPoint x="160" y="490" as="sourcePoint" />
            <mxPoint x="310" y="370" as="targetPoint" />
          </mxGeometry>
        </mxCell>
        <mxCell id="hKfD_OgSRdeKxgfNmtOg-61" value="" style="endArrow=none;html=1;rounded=0;entryX=0;entryY=0.5;entryDx=0;entryDy=0;" edge="1" parent="1" target="hKfD_OgSRdeKxgfNmtOg-48">
          <mxGeometry width="50" height="50" relative="1" as="geometry">
            <mxPoint x="150" y="470" as="sourcePoint" />
            <mxPoint x="440" y="340" as="targetPoint" />
          </mxGeometry>
        </mxCell>
        <mxCell id="hKfD_OgSRdeKxgfNmtOg-63" value="" style="endArrow=classic;html=1;rounded=0;entryX=1;entryY=0.5;entryDx=0;entryDy=0;" edge="1" parent="1" target="hKfD_OgSRdeKxgfNmtOg-48">
          <mxGeometry width="50" height="50" relative="1" as="geometry">
            <mxPoint x="740" y="160" as="sourcePoint" />
            <mxPoint x="440" y="340" as="targetPoint" />
          </mxGeometry>
        </mxCell>
        <mxCell id="hKfD_OgSRdeKxgfNmtOg-64" value="Moderates" style="edgeLabel;html=1;align=center;verticalAlign=middle;resizable=0;points=[];" vertex="1" connectable="0" parent="hKfD_OgSRdeKxgfNmtOg-63">
          <mxGeometry x="0.321" y="-1" relative="1" as="geometry">
            <mxPoint as="offset" />
          </mxGeometry>
        </mxCell>
        <mxCell id="hKfD_OgSRdeKxgfNmtOg-65" value="" style="endArrow=none;html=1;rounded=0;" edge="1" parent="1">
          <mxGeometry width="50" height="50" relative="1" as="geometry">
            <mxPoint x="140" y="320" as="sourcePoint" />
            <mxPoint x="300" y="580" as="targetPoint" />
          </mxGeometry>
        </mxCell>
        <mxCell id="hKfD_OgSRdeKxgfNmtOg-66" value="Consultar Rotina de Exercicios" style="ellipse;whiteSpace=wrap;html=1;" vertex="1" parent="1">
          <mxGeometry x="305" y="640" width="120" height="80" as="geometry" />
        </mxCell>
        <mxCell id="hKfD_OgSRdeKxgfNmtOg-67" value="Criar Rotina de Exercicios" style="ellipse;whiteSpace=wrap;html=1;" vertex="1" parent="1">
          <mxGeometry x="305" y="740" width="120" height="80" as="geometry" />
        </mxCell>
        <mxCell id="hKfD_OgSRdeKxgfNmtOg-68" value="" style="endArrow=none;html=1;rounded=0;entryX=0;entryY=0.5;entryDx=0;entryDy=0;" edge="1" parent="1" target="hKfD_OgSRdeKxgfNmtOg-67">
          <mxGeometry width="50" height="50" relative="1" as="geometry">
            <mxPoint x="150" y="470" as="sourcePoint" />
            <mxPoint x="430" y="590" as="targetPoint" />
          </mxGeometry>
        </mxCell>
        <mxCell id="hKfD_OgSRdeKxgfNmtOg-69" value="" style="endArrow=classic;html=1;rounded=0;exitX=0.5;exitY=1;exitDx=0;exitDy=0;entryX=0.5;entryY=0;entryDx=0;entryDy=0;" edge="1" parent="1" source="hKfD_OgSRdeKxgfNmtOg-66" target="hKfD_OgSRdeKxgfNmtOg-67">
          <mxGeometry width="50" height="50" relative="1" as="geometry">
            <mxPoint x="380" y="620" as="sourcePoint" />
            <mxPoint x="430" y="570" as="targetPoint" />
          </mxGeometry>
        </mxCell>
        <mxCell id="hKfD_OgSRdeKxgfNmtOg-70" value="" style="endArrow=none;html=1;rounded=0;entryX=0;entryY=0.5;entryDx=0;entryDy=0;" edge="1" parent="1" target="hKfD_OgSRdeKxgfNmtOg-66">
          <mxGeometry width="50" height="50" relative="1" as="geometry">
            <mxPoint x="140" y="320" as="sourcePoint" />
            <mxPoint x="430" y="570" as="targetPoint" />
          </mxGeometry>
        </mxCell>
      </root>
    </mxGraphModel>
  </diagram>
  <diagram id="ihls1f8tV5Q7rJi_YqzV" name="Fluxo de Usuario">
    <mxGraphModel dx="1521" dy="875" grid="1" gridSize="10" guides="1" tooltips="1" connect="1" arrows="1" fold="1" page="1" pageScale="1" pageWidth="827" pageHeight="1169" math="0" shadow="0">
      <root>
        <mxCell id="0" />
        <mxCell id="1" parent="0" />
        <mxCell id="5XVktPkPSekbsYPtS2K7-62" value="" style="rounded=0;whiteSpace=wrap;html=1;" vertex="1" parent="1">
          <mxGeometry x="80" y="680" width="400" height="220" as="geometry" />
        </mxCell>
        <mxCell id="5XVktPkPSekbsYPtS2K7-59" value="" style="rounded=0;whiteSpace=wrap;html=1;" vertex="1" parent="1">
          <mxGeometry x="580" y="600" width="470" height="160" as="geometry" />
        </mxCell>
        <mxCell id="5XVktPkPSekbsYPtS2K7-58" value="" style="rounded=0;whiteSpace=wrap;html=1;" vertex="1" parent="1">
          <mxGeometry x="580" y="440" width="470" height="160" as="geometry" />
        </mxCell>
        <mxCell id="5XVktPkPSekbsYPtS2K7-57" value="" style="rounded=0;whiteSpace=wrap;html=1;" vertex="1" parent="1">
          <mxGeometry x="170" y="70" width="310" height="590" as="geometry" />
        </mxCell>
        <mxCell id="5XVktPkPSekbsYPtS2K7-4" value="Login/Cadastro" style="rounded=1;whiteSpace=wrap;html=1;" vertex="1" parent="1">
          <mxGeometry x="265" y="80" width="120" height="60" as="geometry" />
        </mxCell>
        <mxCell id="5XVktPkPSekbsYPtS2K7-5" value="Usuario Registrado?" style="rhombus;whiteSpace=wrap;html=1;" vertex="1" parent="1">
          <mxGeometry x="285" y="160" width="80" height="80" as="geometry" />
        </mxCell>
        <mxCell id="5XVktPkPSekbsYPtS2K7-6" value="" style="endArrow=classic;html=1;rounded=0;" edge="1" parent="1" target="5XVktPkPSekbsYPtS2K7-5">
          <mxGeometry width="50" height="50" relative="1" as="geometry">
            <mxPoint x="325" y="130" as="sourcePoint" />
            <mxPoint x="430" y="240" as="targetPoint" />
          </mxGeometry>
        </mxCell>
        <mxCell id="5XVktPkPSekbsYPtS2K7-7" value="" style="endArrow=classic;html=1;rounded=0;exitX=1;exitY=0.5;exitDx=0;exitDy=0;entryX=0.5;entryY=0;entryDx=0;entryDy=0;" edge="1" parent="1" source="5XVktPkPSekbsYPtS2K7-5" target="5XVktPkPSekbsYPtS2K7-8">
          <mxGeometry width="50" height="50" relative="1" as="geometry">
            <mxPoint x="380" y="290" as="sourcePoint" />
            <mxPoint x="560" y="240" as="targetPoint" />
            <Array as="points">
              <mxPoint x="400" y="200" />
            </Array>
          </mxGeometry>
        </mxCell>
        <mxCell id="5XVktPkPSekbsYPtS2K7-9" value="Nao" style="edgeLabel;html=1;align=center;verticalAlign=middle;resizable=0;points=[];" vertex="1" connectable="0" parent="5XVktPkPSekbsYPtS2K7-7">
          <mxGeometry x="-0.0222" y="-1" relative="1" as="geometry">
            <mxPoint as="offset" />
          </mxGeometry>
        </mxCell>
        <mxCell id="5XVktPkPSekbsYPtS2K7-16" style="edgeStyle=orthogonalEdgeStyle;rounded=0;orthogonalLoop=1;jettySize=auto;html=1;exitX=0.5;exitY=1;exitDx=0;exitDy=0;entryX=0.5;entryY=0;entryDx=0;entryDy=0;" edge="1" parent="1" source="5XVktPkPSekbsYPtS2K7-8" target="5XVktPkPSekbsYPtS2K7-11">
          <mxGeometry relative="1" as="geometry" />
        </mxCell>
        <mxCell id="5XVktPkPSekbsYPtS2K7-8" value="Cadastro" style="rounded=1;whiteSpace=wrap;html=1;" vertex="1" parent="1">
          <mxGeometry x="340" y="300" width="120" height="60" as="geometry" />
        </mxCell>
        <mxCell id="5XVktPkPSekbsYPtS2K7-23" style="edgeStyle=orthogonalEdgeStyle;rounded=0;orthogonalLoop=1;jettySize=auto;html=1;exitX=1;exitY=0.5;exitDx=0;exitDy=0;entryX=0;entryY=0.5;entryDx=0;entryDy=0;" edge="1" parent="1" source="5XVktPkPSekbsYPtS2K7-10" target="5XVktPkPSekbsYPtS2K7-21">
          <mxGeometry relative="1" as="geometry" />
        </mxCell>
        <mxCell id="5XVktPkPSekbsYPtS2K7-45" style="edgeStyle=orthogonalEdgeStyle;rounded=0;orthogonalLoop=1;jettySize=auto;html=1;exitX=1;exitY=0.5;exitDx=0;exitDy=0;entryX=0;entryY=0.5;entryDx=0;entryDy=0;" edge="1" parent="1" source="5XVktPkPSekbsYPtS2K7-10" target="5XVktPkPSekbsYPtS2K7-22">
          <mxGeometry relative="1" as="geometry" />
        </mxCell>
        <mxCell id="5XVktPkPSekbsYPtS2K7-46" style="edgeStyle=orthogonalEdgeStyle;rounded=0;orthogonalLoop=1;jettySize=auto;html=1;exitX=0.5;exitY=1;exitDx=0;exitDy=0;" edge="1" parent="1" source="5XVktPkPSekbsYPtS2K7-10">
          <mxGeometry relative="1" as="geometry">
            <mxPoint x="200" y="720" as="targetPoint" />
            <Array as="points">
              <mxPoint x="340" y="700" />
              <mxPoint x="201" y="700" />
            </Array>
          </mxGeometry>
        </mxCell>
        <mxCell id="5XVktPkPSekbsYPtS2K7-47" style="edgeStyle=orthogonalEdgeStyle;rounded=0;orthogonalLoop=1;jettySize=auto;html=1;exitX=0.5;exitY=1;exitDx=0;exitDy=0;" edge="1" parent="1" source="5XVktPkPSekbsYPtS2K7-10">
          <mxGeometry relative="1" as="geometry">
            <mxPoint x="340" y="750" as="targetPoint" />
          </mxGeometry>
        </mxCell>
        <mxCell id="5XVktPkPSekbsYPtS2K7-10" value="Login" style="rounded=1;whiteSpace=wrap;html=1;" vertex="1" parent="1">
          <mxGeometry x="280" y="580" width="120" height="60" as="geometry" />
        </mxCell>
        <mxCell id="5XVktPkPSekbsYPtS2K7-18" style="edgeStyle=orthogonalEdgeStyle;rounded=0;orthogonalLoop=1;jettySize=auto;html=1;exitX=0.5;exitY=1;exitDx=0;exitDy=0;entryX=0.5;entryY=0;entryDx=0;entryDy=0;" edge="1" parent="1" source="5XVktPkPSekbsYPtS2K7-11" target="5XVktPkPSekbsYPtS2K7-12">
          <mxGeometry relative="1" as="geometry" />
        </mxCell>
        <mxCell id="5XVktPkPSekbsYPtS2K7-11" value="Inserir Email" style="rounded=1;whiteSpace=wrap;html=1;" vertex="1" parent="1">
          <mxGeometry x="280" y="400" width="120" height="60" as="geometry" />
        </mxCell>
        <mxCell id="5XVktPkPSekbsYPtS2K7-19" style="edgeStyle=orthogonalEdgeStyle;rounded=0;orthogonalLoop=1;jettySize=auto;html=1;exitX=0.5;exitY=1;exitDx=0;exitDy=0;entryX=0.5;entryY=0;entryDx=0;entryDy=0;" edge="1" parent="1" source="5XVktPkPSekbsYPtS2K7-12" target="5XVktPkPSekbsYPtS2K7-10">
          <mxGeometry relative="1" as="geometry" />
        </mxCell>
        <mxCell id="5XVktPkPSekbsYPtS2K7-12" value="Inserir Senha" style="rounded=1;whiteSpace=wrap;html=1;" vertex="1" parent="1">
          <mxGeometry x="280" y="490" width="120" height="60" as="geometry" />
        </mxCell>
        <mxCell id="5XVktPkPSekbsYPtS2K7-13" value="" style="endArrow=classic;html=1;rounded=0;exitX=0;exitY=0.5;exitDx=0;exitDy=0;entryX=-0.008;entryY=0.633;entryDx=0;entryDy=0;entryPerimeter=0;" edge="1" parent="1" source="5XVktPkPSekbsYPtS2K7-5" target="5XVktPkPSekbsYPtS2K7-11">
          <mxGeometry width="50" height="50" relative="1" as="geometry">
            <mxPoint x="380" y="290" as="sourcePoint" />
            <mxPoint x="240" y="440" as="targetPoint" />
            <Array as="points">
              <mxPoint x="240" y="200" />
              <mxPoint x="240" y="438" />
            </Array>
          </mxGeometry>
        </mxCell>
        <mxCell id="5XVktPkPSekbsYPtS2K7-14" value="Sim" style="edgeLabel;html=1;align=center;verticalAlign=middle;resizable=0;points=[];" vertex="1" connectable="0" parent="5XVktPkPSekbsYPtS2K7-13">
          <mxGeometry x="-0.5474" y="-3" relative="1" as="geometry">
            <mxPoint as="offset" />
          </mxGeometry>
        </mxCell>
        <mxCell id="5XVktPkPSekbsYPtS2K7-39" style="edgeStyle=orthogonalEdgeStyle;rounded=0;orthogonalLoop=1;jettySize=auto;html=1;entryX=0;entryY=0.5;entryDx=0;entryDy=0;" edge="1" parent="1" source="5XVktPkPSekbsYPtS2K7-21" target="5XVktPkPSekbsYPtS2K7-32">
          <mxGeometry relative="1" as="geometry" />
        </mxCell>
        <mxCell id="5XVktPkPSekbsYPtS2K7-40" value="Nao" style="edgeLabel;html=1;align=center;verticalAlign=middle;resizable=0;points=[];" vertex="1" connectable="0" parent="5XVktPkPSekbsYPtS2K7-39">
          <mxGeometry x="-0.7072" y="2" relative="1" as="geometry">
            <mxPoint as="offset" />
          </mxGeometry>
        </mxCell>
        <mxCell id="5XVktPkPSekbsYPtS2K7-21" value="Criar Receita?" style="rhombus;whiteSpace=wrap;html=1;" vertex="1" parent="1">
          <mxGeometry x="630" y="505" width="80" height="80" as="geometry" />
        </mxCell>
        <mxCell id="5XVktPkPSekbsYPtS2K7-37" style="edgeStyle=orthogonalEdgeStyle;rounded=0;orthogonalLoop=1;jettySize=auto;html=1;exitX=0.5;exitY=0;exitDx=0;exitDy=0;entryX=0;entryY=0.5;entryDx=0;entryDy=0;" edge="1" parent="1" source="5XVktPkPSekbsYPtS2K7-22" target="5XVktPkPSekbsYPtS2K7-28">
          <mxGeometry relative="1" as="geometry" />
        </mxCell>
        <mxCell id="5XVktPkPSekbsYPtS2K7-38" value="Sim" style="edgeLabel;html=1;align=center;verticalAlign=middle;resizable=0;points=[];" vertex="1" connectable="0" parent="5XVktPkPSekbsYPtS2K7-37">
          <mxGeometry x="-0.3597" y="-1" relative="1" as="geometry">
            <mxPoint as="offset" />
          </mxGeometry>
        </mxCell>
        <mxCell id="5XVktPkPSekbsYPtS2K7-22" value="Criar Rotina?" style="rhombus;whiteSpace=wrap;html=1;" vertex="1" parent="1">
          <mxGeometry x="630" y="660" width="80" height="80" as="geometry" />
        </mxCell>
        <mxCell id="5XVktPkPSekbsYPtS2K7-35" style="edgeStyle=orthogonalEdgeStyle;rounded=0;orthogonalLoop=1;jettySize=auto;html=1;exitX=1;exitY=0.5;exitDx=0;exitDy=0;entryX=0.5;entryY=0;entryDx=0;entryDy=0;" edge="1" parent="1" source="5XVktPkPSekbsYPtS2K7-27" target="5XVktPkPSekbsYPtS2K7-32">
          <mxGeometry relative="1" as="geometry" />
        </mxCell>
        <mxCell id="5XVktPkPSekbsYPtS2K7-27" value="Criar" style="rounded=1;whiteSpace=wrap;html=1;" vertex="1" parent="1">
          <mxGeometry x="750" y="460" width="120" height="60" as="geometry" />
        </mxCell>
        <mxCell id="5XVktPkPSekbsYPtS2K7-44" style="edgeStyle=orthogonalEdgeStyle;rounded=0;orthogonalLoop=1;jettySize=auto;html=1;exitX=1;exitY=0.5;exitDx=0;exitDy=0;entryX=0.5;entryY=0;entryDx=0;entryDy=0;" edge="1" parent="1" source="5XVktPkPSekbsYPtS2K7-28" target="5XVktPkPSekbsYPtS2K7-43">
          <mxGeometry relative="1" as="geometry" />
        </mxCell>
        <mxCell id="5XVktPkPSekbsYPtS2K7-28" value="Criar" style="rounded=1;whiteSpace=wrap;html=1;" vertex="1" parent="1">
          <mxGeometry x="750" y="610" width="120" height="60" as="geometry" />
        </mxCell>
        <mxCell id="5XVktPkPSekbsYPtS2K7-32" value="Ver Receita" style="rounded=1;whiteSpace=wrap;html=1;" vertex="1" parent="1">
          <mxGeometry x="890" y="515" width="120" height="60" as="geometry" />
        </mxCell>
        <mxCell id="5XVktPkPSekbsYPtS2K7-33" style="edgeStyle=orthogonalEdgeStyle;rounded=0;orthogonalLoop=1;jettySize=auto;html=1;exitX=0.5;exitY=0;exitDx=0;exitDy=0;entryX=-0.017;entryY=0.367;entryDx=0;entryDy=0;entryPerimeter=0;" edge="1" parent="1" source="5XVktPkPSekbsYPtS2K7-21" target="5XVktPkPSekbsYPtS2K7-27">
          <mxGeometry relative="1" as="geometry" />
        </mxCell>
        <mxCell id="5XVktPkPSekbsYPtS2K7-34" value="Sim" style="edgeLabel;html=1;align=center;verticalAlign=middle;resizable=0;points=[];" vertex="1" connectable="0" parent="5XVktPkPSekbsYPtS2K7-33">
          <mxGeometry x="-0.1875" y="1" relative="1" as="geometry">
            <mxPoint as="offset" />
          </mxGeometry>
        </mxCell>
        <mxCell id="5XVktPkPSekbsYPtS2K7-41" style="edgeStyle=orthogonalEdgeStyle;rounded=0;orthogonalLoop=1;jettySize=auto;html=1;entryX=0;entryY=0.5;entryDx=0;entryDy=0;exitX=1;exitY=0.5;exitDx=0;exitDy=0;" edge="1" parent="1" target="5XVktPkPSekbsYPtS2K7-43" source="5XVktPkPSekbsYPtS2K7-22">
          <mxGeometry relative="1" as="geometry">
            <mxPoint x="710" y="695" as="sourcePoint" />
          </mxGeometry>
        </mxCell>
        <mxCell id="5XVktPkPSekbsYPtS2K7-42" value="Nao" style="edgeLabel;html=1;align=center;verticalAlign=middle;resizable=0;points=[];" vertex="1" connectable="0" parent="5XVktPkPSekbsYPtS2K7-41">
          <mxGeometry x="-0.7072" y="2" relative="1" as="geometry">
            <mxPoint as="offset" />
          </mxGeometry>
        </mxCell>
        <mxCell id="5XVktPkPSekbsYPtS2K7-43" value="Ver Receita" style="rounded=1;whiteSpace=wrap;html=1;" vertex="1" parent="1">
          <mxGeometry x="890" y="670" width="120" height="60" as="geometry" />
        </mxCell>
        <mxCell id="5XVktPkPSekbsYPtS2K7-48" value="Forum" style="rounded=1;whiteSpace=wrap;html=1;" vertex="1" parent="1">
          <mxGeometry x="280" y="750" width="120" height="60" as="geometry" />
        </mxCell>
        <mxCell id="5XVktPkPSekbsYPtS2K7-50" style="edgeStyle=orthogonalEdgeStyle;rounded=0;orthogonalLoop=1;jettySize=auto;html=1;exitX=0.5;exitY=1;exitDx=0;exitDy=0;" edge="1" parent="1" source="5XVktPkPSekbsYPtS2K7-49">
          <mxGeometry relative="1" as="geometry">
            <mxPoint x="190" y="830" as="targetPoint" />
          </mxGeometry>
        </mxCell>
        <mxCell id="5XVktPkPSekbsYPtS2K7-49" value="Minha Conta" style="rounded=1;whiteSpace=wrap;html=1;" vertex="1" parent="1">
          <mxGeometry x="130" y="720" width="120" height="60" as="geometry" />
        </mxCell>
        <mxCell id="5XVktPkPSekbsYPtS2K7-51" value="Resumo de Atividades" style="rounded=1;whiteSpace=wrap;html=1;" vertex="1" parent="1">
          <mxGeometry x="130" y="830" width="120" height="60" as="geometry" />
        </mxCell>
        <mxCell id="5XVktPkPSekbsYPtS2K7-60" value="Receitas" style="text;html=1;align=center;verticalAlign=middle;whiteSpace=wrap;rounded=0;" vertex="1" parent="1">
          <mxGeometry x="590" y="440" width="60" height="30" as="geometry" />
        </mxCell>
        <mxCell id="5XVktPkPSekbsYPtS2K7-61" value="Exercicios" style="text;html=1;align=center;verticalAlign=middle;whiteSpace=wrap;rounded=0;" vertex="1" parent="1">
          <mxGeometry x="590" y="600" width="60" height="30" as="geometry" />
        </mxCell>
        <mxCell id="5XVktPkPSekbsYPtS2K7-2" value="Login/Cadastro" style="text;html=1;align=center;verticalAlign=middle;resizable=0;points=[];autosize=1;strokeColor=none;fillColor=none;" vertex="1" parent="1">
          <mxGeometry x="165" y="70" width="100" height="30" as="geometry" />
        </mxCell>
        <mxCell id="5XVktPkPSekbsYPtS2K7-63" value="Area do Cliente/Forum" style="text;html=1;align=center;verticalAlign=middle;whiteSpace=wrap;rounded=0;" vertex="1" parent="1">
          <mxGeometry x="90" y="685" width="80" height="30" as="geometry" />
        </mxCell>
      </root>
    </mxGraphModel>
  </diagram>
  <diagram id="PjLRk_slzZNTjGGafjlT" name="Classes">
    <mxGraphModel dx="1293" dy="1913" grid="1" gridSize="10" guides="1" tooltips="1" connect="1" arrows="1" fold="1" page="1" pageScale="1" pageWidth="827" pageHeight="1169" math="0" shadow="0">
      <root>
        <mxCell id="0" />
        <mxCell id="1" parent="0" />
        <mxCell id="phBKlRfxK-eK56HE1TyM-1" value="User" style="swimlane;fontStyle=0;childLayout=stackLayout;horizontal=1;startSize=26;fillColor=none;horizontalStack=0;resizeParent=1;resizeParentMax=0;resizeLast=0;collapsible=1;marginBottom=0;whiteSpace=wrap;html=1;" vertex="1" parent="1">
          <mxGeometry x="120" y="80" width="140" height="130" as="geometry" />
        </mxCell>
        <mxCell id="phBKlRfxK-eK56HE1TyM-2" value="+ firstName: string" style="text;strokeColor=none;fillColor=none;align=left;verticalAlign=top;spacingLeft=4;spacingRight=4;overflow=hidden;rotatable=0;points=[[0,0.5],[1,0.5]];portConstraint=eastwest;whiteSpace=wrap;html=1;" vertex="1" parent="phBKlRfxK-eK56HE1TyM-1">
          <mxGeometry y="26" width="140" height="26" as="geometry" />
        </mxCell>
        <mxCell id="phBKlRfxK-eK56HE1TyM-3" value="+ lastName: string" style="text;strokeColor=none;fillColor=none;align=left;verticalAlign=top;spacingLeft=4;spacingRight=4;overflow=hidden;rotatable=0;points=[[0,0.5],[1,0.5]];portConstraint=eastwest;whiteSpace=wrap;html=1;" vertex="1" parent="phBKlRfxK-eK56HE1TyM-1">
          <mxGeometry y="52" width="140" height="26" as="geometry" />
        </mxCell>
        <mxCell id="phBKlRfxK-eK56HE1TyM-4" value="+ email: string" style="text;strokeColor=none;fillColor=none;align=left;verticalAlign=top;spacingLeft=4;spacingRight=4;overflow=hidden;rotatable=0;points=[[0,0.5],[1,0.5]];portConstraint=eastwest;whiteSpace=wrap;html=1;" vertex="1" parent="phBKlRfxK-eK56HE1TyM-1">
          <mxGeometry y="78" width="140" height="26" as="geometry" />
        </mxCell>
        <mxCell id="phBKlRfxK-eK56HE1TyM-16" value="+ userID: UUID" style="text;strokeColor=none;fillColor=none;align=left;verticalAlign=top;spacingLeft=4;spacingRight=4;overflow=hidden;rotatable=0;points=[[0,0.5],[1,0.5]];portConstraint=eastwest;whiteSpace=wrap;html=1;" vertex="1" parent="phBKlRfxK-eK56HE1TyM-1">
          <mxGeometry y="104" width="140" height="26" as="geometry" />
        </mxCell>
        <mxCell id="phBKlRfxK-eK56HE1TyM-5" value="Login" style="swimlane;fontStyle=0;childLayout=stackLayout;horizontal=1;startSize=26;fillColor=none;horizontalStack=0;resizeParent=1;resizeParentMax=0;resizeLast=0;collapsible=1;marginBottom=0;whiteSpace=wrap;html=1;" vertex="1" parent="1">
          <mxGeometry x="120" y="300" width="140" height="78" as="geometry" />
        </mxCell>
        <mxCell id="phBKlRfxK-eK56HE1TyM-7" value="+ email: string" style="text;strokeColor=none;fillColor=none;align=left;verticalAlign=top;spacingLeft=4;spacingRight=4;overflow=hidden;rotatable=0;points=[[0,0.5],[1,0.5]];portConstraint=eastwest;whiteSpace=wrap;html=1;" vertex="1" parent="phBKlRfxK-eK56HE1TyM-5">
          <mxGeometry y="26" width="140" height="26" as="geometry" />
        </mxCell>
        <mxCell id="phBKlRfxK-eK56HE1TyM-8" value="+ password: string" style="text;strokeColor=none;fillColor=none;align=left;verticalAlign=top;spacingLeft=4;spacingRight=4;overflow=hidden;rotatable=0;points=[[0,0.5],[1,0.5]];portConstraint=eastwest;whiteSpace=wrap;html=1;" vertex="1" parent="phBKlRfxK-eK56HE1TyM-5">
          <mxGeometry y="52" width="140" height="26" as="geometry" />
        </mxCell>
        <mxCell id="phBKlRfxK-eK56HE1TyM-15" value="" style="endArrow=diamondThin;endFill=1;endSize=24;html=1;rounded=0;exitX=0.55;exitY=0.013;exitDx=0;exitDy=0;exitPerimeter=0;" edge="1" parent="1" source="phBKlRfxK-eK56HE1TyM-5">
          <mxGeometry width="160" relative="1" as="geometry">
            <mxPoint x="199.07999999999993" y="340.00200000000007" as="sourcePoint" />
            <mxPoint x="199" y="210" as="targetPoint" />
          </mxGeometry>
        </mxCell>
        <mxCell id="phBKlRfxK-eK56HE1TyM-17" value="Create Account" style="swimlane;fontStyle=0;childLayout=stackLayout;horizontal=1;startSize=26;fillColor=none;horizontalStack=0;resizeParent=1;resizeParentMax=0;resizeLast=0;collapsible=1;marginBottom=0;whiteSpace=wrap;html=1;" vertex="1" parent="1">
          <mxGeometry x="40" y="-70" width="140" height="78" as="geometry" />
        </mxCell>
        <mxCell id="phBKlRfxK-eK56HE1TyM-18" value="+ email: string" style="text;strokeColor=none;fillColor=none;align=left;verticalAlign=top;spacingLeft=4;spacingRight=4;overflow=hidden;rotatable=0;points=[[0,0.5],[1,0.5]];portConstraint=eastwest;whiteSpace=wrap;html=1;" vertex="1" parent="phBKlRfxK-eK56HE1TyM-17">
          <mxGeometry y="26" width="140" height="26" as="geometry" />
        </mxCell>
        <mxCell id="phBKlRfxK-eK56HE1TyM-19" value="+ password: string" style="text;strokeColor=none;fillColor=none;align=left;verticalAlign=top;spacingLeft=4;spacingRight=4;overflow=hidden;rotatable=0;points=[[0,0.5],[1,0.5]];portConstraint=eastwest;whiteSpace=wrap;html=1;" vertex="1" parent="phBKlRfxK-eK56HE1TyM-17">
          <mxGeometry y="52" width="140" height="26" as="geometry" />
        </mxCell>
        <mxCell id="phBKlRfxK-eK56HE1TyM-21" value="1" style="endArrow=open;html=1;endSize=12;startArrow=diamondThin;startSize=14;startFill=0;edgeStyle=orthogonalEdgeStyle;align=left;verticalAlign=bottom;rounded=0;entryX=0.564;entryY=0;entryDx=0;entryDy=0;entryPerimeter=0;exitX=1;exitY=0.167;exitDx=0;exitDy=0;exitPerimeter=0;" edge="1" parent="1" source="phBKlRfxK-eK56HE1TyM-17" target="phBKlRfxK-eK56HE1TyM-1">
          <mxGeometry x="-1" y="3" relative="1" as="geometry">
            <mxPoint x="199" y="-70" as="sourcePoint" />
            <mxPoint x="490" y="-10" as="targetPoint" />
          </mxGeometry>
        </mxCell>
        <mxCell id="phBKlRfxK-eK56HE1TyM-22" value="Main Menu" style="swimlane;fontStyle=0;childLayout=stackLayout;horizontal=1;startSize=26;fillColor=none;horizontalStack=0;resizeParent=1;resizeParentMax=0;resizeLast=0;collapsible=1;marginBottom=0;whiteSpace=wrap;html=1;" vertex="1" parent="1">
          <mxGeometry x="390" y="110" width="140" height="50" as="geometry" />
        </mxCell>
        <mxCell id="phBKlRfxK-eK56HE1TyM-29" value="" style="endArrow=open;endFill=1;endSize=12;html=1;rounded=0;exitX=0;exitY=0.5;exitDx=0;exitDy=0;entryX=1.014;entryY=0.077;entryDx=0;entryDy=0;entryPerimeter=0;" edge="1" parent="1" source="phBKlRfxK-eK56HE1TyM-22" target="phBKlRfxK-eK56HE1TyM-3">
          <mxGeometry width="160" relative="1" as="geometry">
            <mxPoint x="330" y="170" as="sourcePoint" />
            <mxPoint x="490" y="170" as="targetPoint" />
          </mxGeometry>
        </mxCell>
        <mxCell id="phBKlRfxK-eK56HE1TyM-30" value="1" style="text;html=1;align=center;verticalAlign=middle;resizable=0;points=[];autosize=1;strokeColor=none;fillColor=none;" vertex="1" parent="1">
          <mxGeometry x="365" y="108" width="30" height="30" as="geometry" />
        </mxCell>
        <mxCell id="phBKlRfxK-eK56HE1TyM-31" value="1" style="text;html=1;align=center;verticalAlign=middle;resizable=0;points=[];autosize=1;strokeColor=none;fillColor=none;" vertex="1" parent="1">
          <mxGeometry x="265" y="108" width="30" height="30" as="geometry" />
        </mxCell>
        <mxCell id="phBKlRfxK-eK56HE1TyM-32" value="Exercises" style="swimlane;fontStyle=0;childLayout=stackLayout;horizontal=1;startSize=26;fillColor=none;horizontalStack=0;resizeParent=1;resizeParentMax=0;resizeLast=0;collapsible=1;marginBottom=0;whiteSpace=wrap;html=1;" vertex="1" parent="1">
          <mxGeometry x="395" y="-140" width="140" height="182" as="geometry" />
        </mxCell>
        <mxCell id="phBKlRfxK-eK56HE1TyM-33" value="+ name: string" style="text;strokeColor=none;fillColor=none;align=left;verticalAlign=top;spacingLeft=4;spacingRight=4;overflow=hidden;rotatable=0;points=[[0,0.5],[1,0.5]];portConstraint=eastwest;whiteSpace=wrap;html=1;" vertex="1" parent="phBKlRfxK-eK56HE1TyM-32">
          <mxGeometry y="26" width="140" height="26" as="geometry" />
        </mxCell>
        <mxCell id="phBKlRfxK-eK56HE1TyM-38" value="+ details: array" style="text;strokeColor=none;fillColor=none;align=left;verticalAlign=top;spacingLeft=4;spacingRight=4;overflow=hidden;rotatable=0;points=[[0,0.5],[1,0.5]];portConstraint=eastwest;whiteSpace=wrap;html=1;" vertex="1" parent="phBKlRfxK-eK56HE1TyM-32">
          <mxGeometry y="52" width="140" height="26" as="geometry" />
        </mxCell>
        <mxCell id="phBKlRfxK-eK56HE1TyM-34" value="+ exerciseID: UUID" style="text;strokeColor=none;fillColor=none;align=left;verticalAlign=top;spacingLeft=4;spacingRight=4;overflow=hidden;rotatable=0;points=[[0,0.5],[1,0.5]];portConstraint=eastwest;whiteSpace=wrap;html=1;" vertex="1" parent="phBKlRfxK-eK56HE1TyM-32">
          <mxGeometry y="78" width="140" height="26" as="geometry" />
        </mxCell>
        <mxCell id="phBKlRfxK-eK56HE1TyM-35" value="+ createdBy: UUID" style="text;strokeColor=none;fillColor=none;align=left;verticalAlign=top;spacingLeft=4;spacingRight=4;overflow=hidden;rotatable=0;points=[[0,0.5],[1,0.5]];portConstraint=eastwest;whiteSpace=wrap;html=1;" vertex="1" parent="phBKlRfxK-eK56HE1TyM-32">
          <mxGeometry y="104" width="140" height="26" as="geometry" />
        </mxCell>
        <mxCell id="phBKlRfxK-eK56HE1TyM-36" value="+ createdAt: timestamp" style="text;strokeColor=none;fillColor=none;align=left;verticalAlign=top;spacingLeft=4;spacingRight=4;overflow=hidden;rotatable=0;points=[[0,0.5],[1,0.5]];portConstraint=eastwest;whiteSpace=wrap;html=1;" vertex="1" parent="phBKlRfxK-eK56HE1TyM-32">
          <mxGeometry y="130" width="140" height="26" as="geometry" />
        </mxCell>
        <mxCell id="phBKlRfxK-eK56HE1TyM-37" value="+ updatedAt: timestamp" style="text;strokeColor=none;fillColor=none;align=left;verticalAlign=top;spacingLeft=4;spacingRight=4;overflow=hidden;rotatable=0;points=[[0,0.5],[1,0.5]];portConstraint=eastwest;whiteSpace=wrap;html=1;" vertex="1" parent="phBKlRfxK-eK56HE1TyM-32">
          <mxGeometry y="156" width="140" height="26" as="geometry" />
        </mxCell>
        <mxCell id="phBKlRfxK-eK56HE1TyM-39" value="" style="html=1;verticalAlign=bottom;endArrow=block;curved=0;rounded=0;exitX=0.5;exitY=0;exitDx=0;exitDy=0;entryX=0.464;entryY=1.039;entryDx=0;entryDy=0;entryPerimeter=0;" edge="1" parent="1" source="phBKlRfxK-eK56HE1TyM-22" target="phBKlRfxK-eK56HE1TyM-37">
          <mxGeometry width="80" relative="1" as="geometry">
            <mxPoint x="370" y="170" as="sourcePoint" />
            <mxPoint x="450" y="170" as="targetPoint" />
          </mxGeometry>
        </mxCell>
        <mxCell id="phBKlRfxK-eK56HE1TyM-40" value="1" style="text;html=1;align=center;verticalAlign=middle;resizable=0;points=[];autosize=1;strokeColor=none;fillColor=none;" vertex="1" parent="1">
          <mxGeometry x="455" y="78" width="30" height="30" as="geometry" />
        </mxCell>
        <mxCell id="phBKlRfxK-eK56HE1TyM-41" value="*" style="text;html=1;align=center;verticalAlign=middle;resizable=0;points=[];autosize=1;strokeColor=none;fillColor=none;" vertex="1" parent="1">
          <mxGeometry x="455" y="38" width="30" height="30" as="geometry" />
        </mxCell>
        <mxCell id="phBKlRfxK-eK56HE1TyM-49" value="Routines" style="swimlane;fontStyle=0;childLayout=stackLayout;horizontal=1;startSize=26;fillColor=none;horizontalStack=0;resizeParent=1;resizeParentMax=0;resizeLast=0;collapsible=1;marginBottom=0;whiteSpace=wrap;html=1;" vertex="1" parent="1">
          <mxGeometry x="630" width="140" height="182" as="geometry" />
        </mxCell>
        <mxCell id="phBKlRfxK-eK56HE1TyM-50" value="+ name: string" style="text;strokeColor=none;fillColor=none;align=left;verticalAlign=top;spacingLeft=4;spacingRight=4;overflow=hidden;rotatable=0;points=[[0,0.5],[1,0.5]];portConstraint=eastwest;whiteSpace=wrap;html=1;" vertex="1" parent="phBKlRfxK-eK56HE1TyM-49">
          <mxGeometry y="26" width="140" height="26" as="geometry" />
        </mxCell>
        <mxCell id="phBKlRfxK-eK56HE1TyM-51" value="+ details: array" style="text;strokeColor=none;fillColor=none;align=left;verticalAlign=top;spacingLeft=4;spacingRight=4;overflow=hidden;rotatable=0;points=[[0,0.5],[1,0.5]];portConstraint=eastwest;whiteSpace=wrap;html=1;" vertex="1" parent="phBKlRfxK-eK56HE1TyM-49">
          <mxGeometry y="52" width="140" height="26" as="geometry" />
        </mxCell>
        <mxCell id="phBKlRfxK-eK56HE1TyM-52" value="+ routineID: UUID" style="text;strokeColor=none;fillColor=none;align=left;verticalAlign=top;spacingLeft=4;spacingRight=4;overflow=hidden;rotatable=0;points=[[0,0.5],[1,0.5]];portConstraint=eastwest;whiteSpace=wrap;html=1;" vertex="1" parent="phBKlRfxK-eK56HE1TyM-49">
          <mxGeometry y="78" width="140" height="26" as="geometry" />
        </mxCell>
        <mxCell id="phBKlRfxK-eK56HE1TyM-53" value="+ createdBy: UUID" style="text;strokeColor=none;fillColor=none;align=left;verticalAlign=top;spacingLeft=4;spacingRight=4;overflow=hidden;rotatable=0;points=[[0,0.5],[1,0.5]];portConstraint=eastwest;whiteSpace=wrap;html=1;" vertex="1" parent="phBKlRfxK-eK56HE1TyM-49">
          <mxGeometry y="104" width="140" height="26" as="geometry" />
        </mxCell>
        <mxCell id="phBKlRfxK-eK56HE1TyM-54" value="+ createdAt: timestamp" style="text;strokeColor=none;fillColor=none;align=left;verticalAlign=top;spacingLeft=4;spacingRight=4;overflow=hidden;rotatable=0;points=[[0,0.5],[1,0.5]];portConstraint=eastwest;whiteSpace=wrap;html=1;" vertex="1" parent="phBKlRfxK-eK56HE1TyM-49">
          <mxGeometry y="130" width="140" height="26" as="geometry" />
        </mxCell>
        <mxCell id="phBKlRfxK-eK56HE1TyM-55" value="+ updatedAt: timestamp" style="text;strokeColor=none;fillColor=none;align=left;verticalAlign=top;spacingLeft=4;spacingRight=4;overflow=hidden;rotatable=0;points=[[0,0.5],[1,0.5]];portConstraint=eastwest;whiteSpace=wrap;html=1;" vertex="1" parent="phBKlRfxK-eK56HE1TyM-49">
          <mxGeometry y="156" width="140" height="26" as="geometry" />
        </mxCell>
        <mxCell id="phBKlRfxK-eK56HE1TyM-56" value="" style="endArrow=block;endFill=1;html=1;edgeStyle=orthogonalEdgeStyle;align=left;verticalAlign=top;rounded=0;exitX=1;exitY=0.5;exitDx=0;exitDy=0;entryX=0;entryY=0.192;entryDx=0;entryDy=0;entryPerimeter=0;" edge="1" parent="1" source="phBKlRfxK-eK56HE1TyM-22" target="phBKlRfxK-eK56HE1TyM-54">
          <mxGeometry x="-1" relative="1" as="geometry">
            <mxPoint x="330" y="170" as="sourcePoint" />
            <mxPoint x="490" y="170" as="targetPoint" />
          </mxGeometry>
        </mxCell>
        <mxCell id="phBKlRfxK-eK56HE1TyM-57" value="1" style="edgeLabel;resizable=0;html=1;align=left;verticalAlign=bottom;" connectable="0" vertex="1" parent="phBKlRfxK-eK56HE1TyM-56">
          <mxGeometry x="-1" relative="1" as="geometry" />
        </mxCell>
        <mxCell id="phBKlRfxK-eK56HE1TyM-58" value="*" style="text;html=1;align=center;verticalAlign=middle;resizable=0;points=[];autosize=1;strokeColor=none;fillColor=none;" vertex="1" parent="1">
          <mxGeometry x="600" y="110" width="30" height="30" as="geometry" />
        </mxCell>
        <mxCell id="phBKlRfxK-eK56HE1TyM-59" value="Forum" style="swimlane;fontStyle=0;childLayout=stackLayout;horizontal=1;startSize=26;fillColor=none;horizontalStack=0;resizeParent=1;resizeParentMax=0;resizeLast=0;collapsible=1;marginBottom=0;whiteSpace=wrap;html=1;" vertex="1" parent="1">
          <mxGeometry x="390" y="210" width="140" height="182" as="geometry" />
        </mxCell>
        <mxCell id="phBKlRfxK-eK56HE1TyM-60" value="+ topicName: string" style="text;strokeColor=none;fillColor=none;align=left;verticalAlign=top;spacingLeft=4;spacingRight=4;overflow=hidden;rotatable=0;points=[[0,0.5],[1,0.5]];portConstraint=eastwest;whiteSpace=wrap;html=1;" vertex="1" parent="phBKlRfxK-eK56HE1TyM-59">
          <mxGeometry y="26" width="140" height="26" as="geometry" />
        </mxCell>
        <mxCell id="phBKlRfxK-eK56HE1TyM-61" value="+ content: record" style="text;strokeColor=none;fillColor=none;align=left;verticalAlign=top;spacingLeft=4;spacingRight=4;overflow=hidden;rotatable=0;points=[[0,0.5],[1,0.5]];portConstraint=eastwest;whiteSpace=wrap;html=1;" vertex="1" parent="phBKlRfxK-eK56HE1TyM-59">
          <mxGeometry y="52" width="140" height="26" as="geometry" />
        </mxCell>
        <mxCell id="phBKlRfxK-eK56HE1TyM-62" value="+ topicID: UUID" style="text;strokeColor=none;fillColor=none;align=left;verticalAlign=top;spacingLeft=4;spacingRight=4;overflow=hidden;rotatable=0;points=[[0,0.5],[1,0.5]];portConstraint=eastwest;whiteSpace=wrap;html=1;" vertex="1" parent="phBKlRfxK-eK56HE1TyM-59">
          <mxGeometry y="78" width="140" height="26" as="geometry" />
        </mxCell>
        <mxCell id="phBKlRfxK-eK56HE1TyM-63" value="+ createdBy: UUID" style="text;strokeColor=none;fillColor=none;align=left;verticalAlign=top;spacingLeft=4;spacingRight=4;overflow=hidden;rotatable=0;points=[[0,0.5],[1,0.5]];portConstraint=eastwest;whiteSpace=wrap;html=1;" vertex="1" parent="phBKlRfxK-eK56HE1TyM-59">
          <mxGeometry y="104" width="140" height="26" as="geometry" />
        </mxCell>
        <mxCell id="phBKlRfxK-eK56HE1TyM-64" value="+ createdAt: timestamp" style="text;strokeColor=none;fillColor=none;align=left;verticalAlign=top;spacingLeft=4;spacingRight=4;overflow=hidden;rotatable=0;points=[[0,0.5],[1,0.5]];portConstraint=eastwest;whiteSpace=wrap;html=1;" vertex="1" parent="phBKlRfxK-eK56HE1TyM-59">
          <mxGeometry y="130" width="140" height="26" as="geometry" />
        </mxCell>
        <mxCell id="phBKlRfxK-eK56HE1TyM-65" value="+ updatedAt: timestamp" style="text;strokeColor=none;fillColor=none;align=left;verticalAlign=top;spacingLeft=4;spacingRight=4;overflow=hidden;rotatable=0;points=[[0,0.5],[1,0.5]];portConstraint=eastwest;whiteSpace=wrap;html=1;" vertex="1" parent="phBKlRfxK-eK56HE1TyM-59">
          <mxGeometry y="156" width="140" height="26" as="geometry" />
        </mxCell>
        <mxCell id="phBKlRfxK-eK56HE1TyM-68" value="" style="endArrow=block;endFill=1;html=1;edgeStyle=orthogonalEdgeStyle;align=left;verticalAlign=top;rounded=0;entryX=0.5;entryY=0;entryDx=0;entryDy=0;" edge="1" parent="1" target="phBKlRfxK-eK56HE1TyM-59">
          <mxGeometry x="-1" relative="1" as="geometry">
            <mxPoint x="460" y="160" as="sourcePoint" />
            <mxPoint x="490" y="170" as="targetPoint" />
          </mxGeometry>
        </mxCell>
        <mxCell id="phBKlRfxK-eK56HE1TyM-69" value="1" style="edgeLabel;resizable=0;html=1;align=left;verticalAlign=bottom;" connectable="0" vertex="1" parent="phBKlRfxK-eK56HE1TyM-68">
          <mxGeometry x="-1" relative="1" as="geometry" />
        </mxCell>
        <mxCell id="phBKlRfxK-eK56HE1TyM-70" value="*" style="text;html=1;align=center;verticalAlign=middle;resizable=0;points=[];autosize=1;strokeColor=none;fillColor=none;" vertex="1" parent="1">
          <mxGeometry x="455" y="188" width="30" height="30" as="geometry" />
        </mxCell>
        <mxCell id="phBKlRfxK-eK56HE1TyM-78" value="" style="html=1;points=[[0,0,0,0,5],[0,1,0,0,-5],[1,0,0,0,5],[1,1,0,0,-5]];perimeter=orthogonalPerimeter;outlineConnect=0;targetShapes=umlLifeline;portConstraint=eastwest;newEdgeStyle={&quot;curved&quot;:0,&quot;rounded&quot;:0};" vertex="1" parent="1">
          <mxGeometry x="120" y="480" width="10" height="320" as="geometry" />
        </mxCell>
        <mxCell id="phBKlRfxK-eK56HE1TyM-79" value="Home" style="text;html=1;align=center;verticalAlign=middle;resizable=0;points=[];autosize=1;strokeColor=none;fillColor=none;" vertex="1" parent="1">
          <mxGeometry x="95" y="450" width="60" height="30" as="geometry" />
        </mxCell>
        <mxCell id="phBKlRfxK-eK56HE1TyM-80" value="To-do time diagram" style="text;html=1;align=center;verticalAlign=middle;resizable=0;points=[];autosize=1;strokeColor=none;fillColor=none;" vertex="1" parent="1">
          <mxGeometry x="40" y="420" width="130" height="30" as="geometry" />
        </mxCell>
      </root>
    </mxGraphModel>
  </diagram>
  <diagram id="PiK8JFsgHMilenTj7vOe" name="ER Conceitual">
    <mxGraphModel dx="1293" dy="744" grid="1" gridSize="10" guides="1" tooltips="1" connect="1" arrows="1" fold="1" page="1" pageScale="1" pageWidth="827" pageHeight="1169" math="0" shadow="0">
      <root>
        <mxCell id="0" />
        <mxCell id="1" parent="0" />
        <mxCell id="frcBeJzvzD4OFOd4GU7s-5" style="edgeStyle=orthogonalEdgeStyle;rounded=0;orthogonalLoop=1;jettySize=auto;html=1;exitX=1;exitY=0.5;exitDx=0;exitDy=0;" edge="1" parent="1" source="UL9ux5jJB5HSoRdQC-hn-1" target="FYu20DRuejF9201w8Kke-3">
          <mxGeometry relative="1" as="geometry">
            <Array as="points">
              <mxPoint x="280" y="200" />
              <mxPoint x="280" y="140" />
            </Array>
          </mxGeometry>
        </mxCell>
        <mxCell id="UL9ux5jJB5HSoRdQC-hn-1" value="User (Consumer)" style="html=1;whiteSpace=wrap;" vertex="1" parent="1">
          <mxGeometry x="70" y="160" width="170" height="80" as="geometry" />
        </mxCell>
        <mxCell id="3vl1w5VsRY4nuduYk_ls-2" value="Exercise" style="html=1;whiteSpace=wrap;" vertex="1" parent="1">
          <mxGeometry x="450" y="20" width="110" height="50" as="geometry" />
        </mxCell>
        <mxCell id="FYu20DRuejF9201w8Kke-1" value="Recipe" style="html=1;whiteSpace=wrap;" vertex="1" parent="1">
          <mxGeometry x="450" y="190" width="110" height="50" as="geometry" />
        </mxCell>
        <mxCell id="FYu20DRuejF9201w8Kke-2" value="Forum" style="html=1;whiteSpace=wrap;" vertex="1" parent="1">
          <mxGeometry x="450" y="295" width="110" height="50" as="geometry" />
        </mxCell>
        <mxCell id="FYu20DRuejF9201w8Kke-3" value="subscribes" style="rhombus;whiteSpace=wrap;html=1;" vertex="1" parent="1">
          <mxGeometry x="310" y="100" width="80" height="80" as="geometry" />
        </mxCell>
        <mxCell id="FYu20DRuejF9201w8Kke-4" value="creates" style="rhombus;whiteSpace=wrap;html=1;" vertex="1" parent="1">
          <mxGeometry x="620" y="90" width="80" height="80" as="geometry" />
        </mxCell>
        <mxCell id="FYu20DRuejF9201w8Kke-6" value="Posts" style="rhombus;whiteSpace=wrap;html=1;" vertex="1" parent="1">
          <mxGeometry x="320" y="280" width="80" height="80" as="geometry" />
        </mxCell>
        <mxCell id="FYu20DRuejF9201w8Kke-7" value="Posts" style="rhombus;whiteSpace=wrap;html=1;" vertex="1" parent="1">
          <mxGeometry x="620" y="280" width="80" height="80" as="geometry" />
        </mxCell>
        <mxCell id="FYu20DRuejF9201w8Kke-8" value="userID" style="ellipse;whiteSpace=wrap;html=1;" vertex="1" parent="1">
          <mxGeometry x="35" y="260" width="60" height="30" as="geometry" />
        </mxCell>
        <mxCell id="frcBeJzvzD4OFOd4GU7s-1" value="firstName" style="ellipse;whiteSpace=wrap;html=1;" vertex="1" parent="1">
          <mxGeometry x="95" y="260" width="60" height="30" as="geometry" />
        </mxCell>
        <mxCell id="frcBeJzvzD4OFOd4GU7s-2" value="lastName" style="ellipse;whiteSpace=wrap;html=1;" vertex="1" parent="1">
          <mxGeometry x="155" y="260" width="60" height="30" as="geometry" />
        </mxCell>
        <mxCell id="frcBeJzvzD4OFOd4GU7s-4" value="email" style="ellipse;whiteSpace=wrap;html=1;" vertex="1" parent="1">
          <mxGeometry x="215" y="260" width="60" height="30" as="geometry" />
        </mxCell>
        <mxCell id="frcBeJzvzD4OFOd4GU7s-7" value="" style="endArrow=none;html=1;rounded=0;exitX=0.5;exitY=0;exitDx=0;exitDy=0;entryX=0.5;entryY=1;entryDx=0;entryDy=0;" edge="1" parent="1" source="FYu20DRuejF9201w8Kke-8" target="UL9ux5jJB5HSoRdQC-hn-1">
          <mxGeometry width="50" height="50" relative="1" as="geometry">
            <mxPoint x="380" y="310" as="sourcePoint" />
            <mxPoint x="430" y="260" as="targetPoint" />
          </mxGeometry>
        </mxCell>
        <mxCell id="frcBeJzvzD4OFOd4GU7s-8" value="" style="endArrow=none;html=1;rounded=0;entryX=0.5;entryY=1;entryDx=0;entryDy=0;" edge="1" parent="1" target="UL9ux5jJB5HSoRdQC-hn-1">
          <mxGeometry width="50" height="50" relative="1" as="geometry">
            <mxPoint x="125" y="260" as="sourcePoint" />
            <mxPoint x="165" y="250" as="targetPoint" />
          </mxGeometry>
        </mxCell>
        <mxCell id="frcBeJzvzD4OFOd4GU7s-9" value="" style="endArrow=none;html=1;rounded=0;exitX=0.5;exitY=0;exitDx=0;exitDy=0;entryX=0.5;entryY=1;entryDx=0;entryDy=0;" edge="1" parent="1" source="frcBeJzvzD4OFOd4GU7s-2" target="UL9ux5jJB5HSoRdQC-hn-1">
          <mxGeometry width="50" height="50" relative="1" as="geometry">
            <mxPoint x="127" y="273" as="sourcePoint" />
            <mxPoint x="165" y="250" as="targetPoint" />
          </mxGeometry>
        </mxCell>
        <mxCell id="frcBeJzvzD4OFOd4GU7s-10" value="" style="endArrow=none;html=1;rounded=0;entryX=0.367;entryY=-0.067;entryDx=0;entryDy=0;entryPerimeter=0;" edge="1" parent="1" target="frcBeJzvzD4OFOd4GU7s-4">
          <mxGeometry width="50" height="50" relative="1" as="geometry">
            <mxPoint x="160" y="240" as="sourcePoint" />
            <mxPoint x="175" y="260" as="targetPoint" />
          </mxGeometry>
        </mxCell>
        <mxCell id="frcBeJzvzD4OFOd4GU7s-25" style="edgeStyle=orthogonalEdgeStyle;rounded=0;orthogonalLoop=1;jettySize=auto;html=1;exitX=0;exitY=0.5;exitDx=0;exitDy=0;entryX=1;entryY=0.5;entryDx=0;entryDy=0;" edge="1" parent="1" source="frcBeJzvzD4OFOd4GU7s-11" target="FYu20DRuejF9201w8Kke-4">
          <mxGeometry relative="1" as="geometry" />
        </mxCell>
        <mxCell id="frcBeJzvzD4OFOd4GU7s-26" style="edgeStyle=orthogonalEdgeStyle;rounded=0;orthogonalLoop=1;jettySize=auto;html=1;entryX=1;entryY=0.5;entryDx=0;entryDy=0;" edge="1" parent="1" source="frcBeJzvzD4OFOd4GU7s-11" target="FYu20DRuejF9201w8Kke-7">
          <mxGeometry relative="1" as="geometry" />
        </mxCell>
        <mxCell id="frcBeJzvzD4OFOd4GU7s-11" value="Publisher" style="html=1;whiteSpace=wrap;" vertex="1" parent="1">
          <mxGeometry x="815" y="160" width="170" height="80" as="geometry" />
        </mxCell>
        <mxCell id="frcBeJzvzD4OFOd4GU7s-12" value="userID" style="ellipse;whiteSpace=wrap;html=1;" vertex="1" parent="1">
          <mxGeometry x="780" y="260" width="60" height="30" as="geometry" />
        </mxCell>
        <mxCell id="frcBeJzvzD4OFOd4GU7s-13" value="firstName" style="ellipse;whiteSpace=wrap;html=1;" vertex="1" parent="1">
          <mxGeometry x="840" y="260" width="60" height="30" as="geometry" />
        </mxCell>
        <mxCell id="frcBeJzvzD4OFOd4GU7s-14" value="lastName" style="ellipse;whiteSpace=wrap;html=1;" vertex="1" parent="1">
          <mxGeometry x="900" y="260" width="60" height="30" as="geometry" />
        </mxCell>
        <mxCell id="frcBeJzvzD4OFOd4GU7s-15" value="email" style="ellipse;whiteSpace=wrap;html=1;" vertex="1" parent="1">
          <mxGeometry x="960" y="260" width="60" height="30" as="geometry" />
        </mxCell>
        <mxCell id="frcBeJzvzD4OFOd4GU7s-16" value="" style="endArrow=none;html=1;rounded=0;exitX=0.5;exitY=0;exitDx=0;exitDy=0;entryX=0.5;entryY=1;entryDx=0;entryDy=0;" edge="1" parent="1" source="frcBeJzvzD4OFOd4GU7s-12" target="frcBeJzvzD4OFOd4GU7s-11">
          <mxGeometry width="50" height="50" relative="1" as="geometry">
            <mxPoint x="1125" y="310" as="sourcePoint" />
            <mxPoint x="1175" y="260" as="targetPoint" />
          </mxGeometry>
        </mxCell>
        <mxCell id="frcBeJzvzD4OFOd4GU7s-17" value="" style="endArrow=none;html=1;rounded=0;entryX=0.5;entryY=1;entryDx=0;entryDy=0;" edge="1" parent="1" target="frcBeJzvzD4OFOd4GU7s-11">
          <mxGeometry width="50" height="50" relative="1" as="geometry">
            <mxPoint x="870" y="260" as="sourcePoint" />
            <mxPoint x="910" y="250" as="targetPoint" />
          </mxGeometry>
        </mxCell>
        <mxCell id="frcBeJzvzD4OFOd4GU7s-18" value="" style="endArrow=none;html=1;rounded=0;exitX=0.5;exitY=0;exitDx=0;exitDy=0;entryX=0.5;entryY=1;entryDx=0;entryDy=0;" edge="1" parent="1" source="frcBeJzvzD4OFOd4GU7s-14" target="frcBeJzvzD4OFOd4GU7s-11">
          <mxGeometry width="50" height="50" relative="1" as="geometry">
            <mxPoint x="872" y="273" as="sourcePoint" />
            <mxPoint x="910" y="250" as="targetPoint" />
          </mxGeometry>
        </mxCell>
        <mxCell id="frcBeJzvzD4OFOd4GU7s-19" value="" style="endArrow=none;html=1;rounded=0;entryX=0.367;entryY=-0.067;entryDx=0;entryDy=0;entryPerimeter=0;" edge="1" parent="1" target="frcBeJzvzD4OFOd4GU7s-15">
          <mxGeometry width="50" height="50" relative="1" as="geometry">
            <mxPoint x="905" y="240" as="sourcePoint" />
            <mxPoint x="920" y="260" as="targetPoint" />
          </mxGeometry>
        </mxCell>
        <mxCell id="frcBeJzvzD4OFOd4GU7s-20" value="" style="edgeStyle=entityRelationEdgeStyle;fontSize=12;html=1;endArrow=ERzeroToMany;endFill=1;rounded=0;exitX=0.5;exitY=0;exitDx=0;exitDy=0;entryX=0;entryY=0.5;entryDx=0;entryDy=0;" edge="1" parent="1" source="FYu20DRuejF9201w8Kke-3" target="3vl1w5VsRY4nuduYk_ls-2">
          <mxGeometry width="100" height="100" relative="1" as="geometry">
            <mxPoint x="360" y="330" as="sourcePoint" />
            <mxPoint x="460" y="230" as="targetPoint" />
          </mxGeometry>
        </mxCell>
        <mxCell id="frcBeJzvzD4OFOd4GU7s-21" value="" style="edgeStyle=entityRelationEdgeStyle;fontSize=12;html=1;endArrow=ERzeroToMany;endFill=1;rounded=0;exitX=0.5;exitY=1;exitDx=0;exitDy=0;entryX=0;entryY=0.5;entryDx=0;entryDy=0;" edge="1" parent="1" source="FYu20DRuejF9201w8Kke-3" target="FYu20DRuejF9201w8Kke-1">
          <mxGeometry width="100" height="100" relative="1" as="geometry">
            <mxPoint x="360" y="110" as="sourcePoint" />
            <mxPoint x="460" y="55" as="targetPoint" />
          </mxGeometry>
        </mxCell>
        <mxCell id="frcBeJzvzD4OFOd4GU7s-22" style="edgeStyle=orthogonalEdgeStyle;rounded=0;orthogonalLoop=1;jettySize=auto;html=1;exitX=1;exitY=0.5;exitDx=0;exitDy=0;entryX=0;entryY=0.5;entryDx=0;entryDy=0;" edge="1" parent="1" source="UL9ux5jJB5HSoRdQC-hn-1" target="FYu20DRuejF9201w8Kke-6">
          <mxGeometry relative="1" as="geometry">
            <mxPoint x="250" y="210" as="sourcePoint" />
            <mxPoint x="320" y="150" as="targetPoint" />
          </mxGeometry>
        </mxCell>
        <mxCell id="frcBeJzvzD4OFOd4GU7s-23" value="" style="edgeStyle=entityRelationEdgeStyle;fontSize=12;html=1;endArrow=ERoneToMany;rounded=0;exitX=0.5;exitY=0;exitDx=0;exitDy=0;entryX=1;entryY=0.25;entryDx=0;entryDy=0;" edge="1" parent="1" source="FYu20DRuejF9201w8Kke-4" target="3vl1w5VsRY4nuduYk_ls-2">
          <mxGeometry width="100" height="100" relative="1" as="geometry">
            <mxPoint x="360" y="330" as="sourcePoint" />
            <mxPoint x="460" y="230" as="targetPoint" />
          </mxGeometry>
        </mxCell>
        <mxCell id="frcBeJzvzD4OFOd4GU7s-29" value="" style="edgeStyle=entityRelationEdgeStyle;fontSize=12;html=1;endArrow=ERoneToMany;rounded=0;exitX=0.5;exitY=1;exitDx=0;exitDy=0;entryX=1;entryY=0.5;entryDx=0;entryDy=0;" edge="1" parent="1" source="FYu20DRuejF9201w8Kke-4" target="FYu20DRuejF9201w8Kke-1">
          <mxGeometry width="100" height="100" relative="1" as="geometry">
            <mxPoint x="550" y="300" as="sourcePoint" />
            <mxPoint x="650" y="200" as="targetPoint" />
          </mxGeometry>
        </mxCell>
        <mxCell id="Ovkb8hbqrl6ThyG_37IB-1" value="Name" style="ellipse;whiteSpace=wrap;html=1;" vertex="1" parent="1">
          <mxGeometry x="445" y="255" width="60" height="30" as="geometry" />
        </mxCell>
        <mxCell id="Ovkb8hbqrl6ThyG_37IB-2" value="Details" style="ellipse;whiteSpace=wrap;html=1;" vertex="1" parent="1">
          <mxGeometry x="505" y="255" width="60" height="30" as="geometry" />
        </mxCell>
        <mxCell id="Ovkb8hbqrl6ThyG_37IB-3" value="Name" style="ellipse;whiteSpace=wrap;html=1;" vertex="1" parent="1">
          <mxGeometry x="445" y="90" width="60" height="30" as="geometry" />
        </mxCell>
        <mxCell id="Ovkb8hbqrl6ThyG_37IB-4" value="Details" style="ellipse;whiteSpace=wrap;html=1;" vertex="1" parent="1">
          <mxGeometry x="505" y="90" width="60" height="30" as="geometry" />
        </mxCell>
        <mxCell id="Ovkb8hbqrl6ThyG_37IB-9" value="" style="edgeStyle=entityRelationEdgeStyle;fontSize=12;html=1;endArrow=ERoneToMany;rounded=0;exitX=0;exitY=0.5;exitDx=0;exitDy=0;entryX=1;entryY=0.5;entryDx=0;entryDy=0;" edge="1" parent="1" source="FYu20DRuejF9201w8Kke-7" target="FYu20DRuejF9201w8Kke-2">
          <mxGeometry width="100" height="100" relative="1" as="geometry">
            <mxPoint x="360" y="330" as="sourcePoint" />
            <mxPoint x="460" y="230" as="targetPoint" />
          </mxGeometry>
        </mxCell>
        <mxCell id="Ovkb8hbqrl6ThyG_37IB-11" value="" style="edgeStyle=entityRelationEdgeStyle;fontSize=12;html=1;endArrow=ERoneToMany;rounded=0;exitX=1;exitY=0.5;exitDx=0;exitDy=0;entryX=0;entryY=0.5;entryDx=0;entryDy=0;" edge="1" parent="1" source="FYu20DRuejF9201w8Kke-6" target="FYu20DRuejF9201w8Kke-2">
          <mxGeometry width="100" height="100" relative="1" as="geometry">
            <mxPoint x="380" y="370" as="sourcePoint" />
            <mxPoint x="430" y="405" as="targetPoint" />
            <Array as="points">
              <mxPoint x="410" y="390" />
              <mxPoint x="420" y="330" />
              <mxPoint x="390" y="380" />
              <mxPoint x="400" y="380" />
              <mxPoint x="410" y="390" />
              <mxPoint x="410" y="400" />
              <mxPoint x="410" y="390" />
              <mxPoint x="410" y="400" />
              <mxPoint x="410" y="400" />
            </Array>
          </mxGeometry>
        </mxCell>
        <mxCell id="Ovkb8hbqrl6ThyG_37IB-12" value="" style="endArrow=none;html=1;rounded=0;exitX=0.5;exitY=0;exitDx=0;exitDy=0;entryX=0.5;entryY=1;entryDx=0;entryDy=0;" edge="1" parent="1" source="Ovkb8hbqrl6ThyG_37IB-1" target="FYu20DRuejF9201w8Kke-1">
          <mxGeometry width="50" height="50" relative="1" as="geometry">
            <mxPoint x="380" y="310" as="sourcePoint" />
            <mxPoint x="430" y="260" as="targetPoint" />
          </mxGeometry>
        </mxCell>
        <mxCell id="Ovkb8hbqrl6ThyG_37IB-13" value="" style="endArrow=none;html=1;rounded=0;exitX=0.5;exitY=1;exitDx=0;exitDy=0;entryX=0.5;entryY=0;entryDx=0;entryDy=0;" edge="1" parent="1" source="FYu20DRuejF9201w8Kke-1" target="Ovkb8hbqrl6ThyG_37IB-2">
          <mxGeometry width="50" height="50" relative="1" as="geometry">
            <mxPoint x="485" y="265" as="sourcePoint" />
            <mxPoint x="515" y="250" as="targetPoint" />
          </mxGeometry>
        </mxCell>
        <mxCell id="Ovkb8hbqrl6ThyG_37IB-16" value="" style="endArrow=none;html=1;rounded=0;exitX=0.5;exitY=1;exitDx=0;exitDy=0;entryX=0.5;entryY=0;entryDx=0;entryDy=0;" edge="1" parent="1" target="Ovkb8hbqrl6ThyG_37IB-4">
          <mxGeometry width="50" height="50" relative="1" as="geometry">
            <mxPoint x="505" y="70" as="sourcePoint" />
            <mxPoint x="535" y="85" as="targetPoint" />
          </mxGeometry>
        </mxCell>
        <mxCell id="Ovkb8hbqrl6ThyG_37IB-17" value="" style="endArrow=none;html=1;rounded=0;entryX=0.5;entryY=0;entryDx=0;entryDy=0;" edge="1" parent="1" target="Ovkb8hbqrl6ThyG_37IB-3">
          <mxGeometry width="50" height="50" relative="1" as="geometry">
            <mxPoint x="510" y="70" as="sourcePoint" />
            <mxPoint x="545" y="100" as="targetPoint" />
          </mxGeometry>
        </mxCell>
        <mxCell id="Ovkb8hbqrl6ThyG_37IB-18" value="Title" style="ellipse;whiteSpace=wrap;html=1;" vertex="1" parent="1">
          <mxGeometry x="445" y="360" width="60" height="30" as="geometry" />
        </mxCell>
        <mxCell id="Ovkb8hbqrl6ThyG_37IB-19" value="Messages" style="ellipse;whiteSpace=wrap;html=1;" vertex="1" parent="1">
          <mxGeometry x="505" y="360" width="60" height="30" as="geometry" />
        </mxCell>
        <mxCell id="Ovkb8hbqrl6ThyG_37IB-20" value="" style="endArrow=none;html=1;rounded=0;exitX=0.5;exitY=1;exitDx=0;exitDy=0;entryX=0.442;entryY=0.017;entryDx=0;entryDy=0;entryPerimeter=0;" edge="1" parent="1" source="FYu20DRuejF9201w8Kke-2" target="Ovkb8hbqrl6ThyG_37IB-18">
          <mxGeometry width="50" height="50" relative="1" as="geometry">
            <mxPoint x="485" y="265" as="sourcePoint" />
            <mxPoint x="515" y="250" as="targetPoint" />
          </mxGeometry>
        </mxCell>
        <mxCell id="Ovkb8hbqrl6ThyG_37IB-21" value="" style="endArrow=none;html=1;rounded=0;exitX=0.5;exitY=0;exitDx=0;exitDy=0;entryX=0.5;entryY=1;entryDx=0;entryDy=0;" edge="1" parent="1" source="Ovkb8hbqrl6ThyG_37IB-19" target="FYu20DRuejF9201w8Kke-2">
          <mxGeometry width="50" height="50" relative="1" as="geometry">
            <mxPoint x="515" y="355" as="sourcePoint" />
            <mxPoint x="482" y="371" as="targetPoint" />
          </mxGeometry>
        </mxCell>
      </root>
    </mxGraphModel>
  </diagram>
  <diagram id="fC_7R-YCHYec5JL461hB" name="Diagrama do Aplicativo">
    <mxGraphModel dx="1293" dy="744" grid="1" gridSize="10" guides="1" tooltips="1" connect="1" arrows="1" fold="1" page="1" pageScale="1" pageWidth="827" pageHeight="1169" math="0" shadow="0">
      <root>
        <mxCell id="0" />
        <mxCell id="1" parent="0" />
        <mxCell id="EUjgMUI1SETLFr9Kv4zJ-26" value="" style="rounded=0;whiteSpace=wrap;html=1;" vertex="1" parent="1">
          <mxGeometry x="180" y="60" width="560" height="380" as="geometry" />
        </mxCell>
        <mxCell id="EUjgMUI1SETLFr9Kv4zJ-5" value="" style="strokeColor=#dddddd;shadow=1;strokeWidth=1;rounded=1;absoluteArcSize=1;arcSize=2;" vertex="1" parent="1">
          <mxGeometry x="190" y="80" width="120" height="60" as="geometry" />
        </mxCell>
        <mxCell id="EUjgMUI1SETLFr9Kv4zJ-6" value="&lt;font color=&quot;#000000&quot;&gt;Hosting&lt;/font&gt;&lt;br&gt;Firebase" style="sketch=0;dashed=0;connectable=0;html=1;fillColor=#5184F3;strokeColor=none;shape=mxgraph.gcp2.firebase;part=1;labelPosition=right;verticalLabelPosition=middle;align=left;verticalAlign=middle;spacingLeft=5;fontColor=#999999;fontSize=12;" vertex="1" parent="EUjgMUI1SETLFr9Kv4zJ-5">
          <mxGeometry width="32.4" height="45" relative="1" as="geometry">
            <mxPoint x="5" y="7" as="offset" />
          </mxGeometry>
        </mxCell>
        <mxCell id="EUjgMUI1SETLFr9Kv4zJ-7" value="" style="strokeColor=#dddddd;shadow=1;strokeWidth=1;rounded=1;absoluteArcSize=1;arcSize=2;" vertex="1" parent="1">
          <mxGeometry x="190" y="180" width="120" height="60" as="geometry" />
        </mxCell>
        <mxCell id="EUjgMUI1SETLFr9Kv4zJ-8" value="&lt;font color=&quot;#000000&quot;&gt;Authentication&lt;/font&gt;&lt;br&gt;Firebase" style="sketch=0;dashed=0;connectable=0;html=1;fillColor=#5184F3;strokeColor=none;shape=mxgraph.gcp2.firebase;part=1;labelPosition=right;verticalLabelPosition=middle;align=left;verticalAlign=middle;spacingLeft=5;fontColor=#999999;fontSize=12;" vertex="1" parent="EUjgMUI1SETLFr9Kv4zJ-7">
          <mxGeometry width="32.4" height="45" relative="1" as="geometry">
            <mxPoint x="5" y="7" as="offset" />
          </mxGeometry>
        </mxCell>
        <mxCell id="EUjgMUI1SETLFr9Kv4zJ-37" style="edgeStyle=orthogonalEdgeStyle;rounded=0;orthogonalLoop=1;jettySize=auto;html=1;exitX=1;exitY=0.5;exitDx=0;exitDy=0;entryX=0;entryY=0.5;entryDx=0;entryDy=0;" edge="1" parent="1" source="EUjgMUI1SETLFr9Kv4zJ-9" target="EUjgMUI1SETLFr9Kv4zJ-11">
          <mxGeometry relative="1" as="geometry" />
        </mxCell>
        <mxCell id="EUjgMUI1SETLFr9Kv4zJ-9" value="" style="strokeColor=#dddddd;shadow=1;strokeWidth=1;rounded=1;absoluteArcSize=1;arcSize=2;" vertex="1" parent="1">
          <mxGeometry x="190" y="270" width="160" height="60" as="geometry" />
        </mxCell>
        <mxCell id="EUjgMUI1SETLFr9Kv4zJ-10" value="&lt;font color=&quot;#000000&quot;&gt;BFF (node.js)&lt;/font&gt;&lt;br&gt;Cloud Functions" style="editableCssRules=.*;html=1;fontColor=#999999;shape=image;verticalLabelPosition=middle;verticalAlign=middle;labelPosition=right;align=left;spacingLeft=20;part=1;points=[];imageAspect=0;image=data:image/svg+xml,PHN2ZyB4bWxucz0iaHR0cDovL3d3dy53My5vcmcvMjAwMC9zdmciIHhtbG5zOnY9Imh0dHBzOi8vdmVjdGEuaW8vbmFubyIgd2lkdGg9IjIwIiBoZWlnaHQ9IjE5Ljk4OTk5OTc3MTExODE2NCIgdmlld0JveD0iMCAwIDIwIDE5Ljk4OTk5OTc3MTExODE2NCI+JiN4YTsJPHN0eWxlIHR5cGU9InRleHQvY3NzIj4mI3hhOwkuc3Qwe2ZpbGw6IzQyODVmNDt9JiN4YTsJLnN0MXtmaWxsOiM2NjlkZjY7fSYjeGE7CS5zdDJ7ZmlsbDojYWVjYmZhO30mI3hhOwk8L3N0eWxlPiYjeGE7CTxwYXRoIGNsYXNzPSJzdDEiIGQ9Ik0zIDMuOTlMMCA2LjQydjcuMTNsMyAyLjQ0eiIvPiYjeGE7CTxwYXRoIGNsYXNzPSJzdDAiIGQ9Ik0zIDMuOTlsLTMgNCAzLTJ6bS0zIDhsMyA0di0yeiIvPiYjeGE7CTxwYXRoIGNsYXNzPSJzdDIiIGQ9Ik0wIDE1Ljk5bDQgNCAyLTItNi02em0uMDEtOEw1Ljk5IDJsLTItMkwwIDMuOTl6Ii8+JiN4YTsJPHBhdGggY2xhc3M9InN0MSIgZD0iTTE3IDE2bDMtMi40MlY2LjQ0TDE3IDR6Ii8+JiN4YTsJPHBhdGggY2xhc3M9InN0MCIgZD0iTTE3IDE2bDMtNC0zIDJ6bTMtOGwtMy00djJ6Ii8+JiN4YTsJPGcgY2xhc3M9InN0MiI+JiN4YTsJCTxwYXRoIGQ9Ik0yMCA0bC00LTQtMiAyIDYgNnptLS4wMSA4bC01Ljk4IDUuOTkgMiAyTDIwIDE2eiIvPiYjeGE7CQk8Y2lyY2xlIGN4PSI2IiBjeT0iOS45OSIgcj0iMSIvPiYjeGE7CQk8Y2lyY2xlIGN4PSIxMCIgY3k9IjkuOTkiIHI9IjEiLz4mI3hhOwkJPGNpcmNsZSBjeD0iMTMuOTkiIGN5PSI5Ljk5IiByPSIxIi8+JiN4YTsJPC9nPiYjeGE7PC9zdmc+;" vertex="1" parent="EUjgMUI1SETLFr9Kv4zJ-9">
          <mxGeometry width="30" height="24" relative="1" as="geometry">
            <mxPoint x="15" y="18" as="offset" />
          </mxGeometry>
        </mxCell>
        <mxCell id="EUjgMUI1SETLFr9Kv4zJ-38" style="edgeStyle=orthogonalEdgeStyle;rounded=0;orthogonalLoop=1;jettySize=auto;html=1;exitX=1;exitY=0.5;exitDx=0;exitDy=0;entryX=0;entryY=0.5;entryDx=0;entryDy=0;" edge="1" parent="1" source="EUjgMUI1SETLFr9Kv4zJ-11" target="EUjgMUI1SETLFr9Kv4zJ-15">
          <mxGeometry relative="1" as="geometry" />
        </mxCell>
        <mxCell id="EUjgMUI1SETLFr9Kv4zJ-11" value="" style="strokeColor=#dddddd;shadow=1;strokeWidth=1;rounded=1;absoluteArcSize=1;arcSize=2;" vertex="1" parent="1">
          <mxGeometry x="370" y="270" width="160" height="60" as="geometry" />
        </mxCell>
        <mxCell id="EUjgMUI1SETLFr9Kv4zJ-12" value="&lt;font color=&quot;#000000&quot;&gt;Backend (C#)&lt;/font&gt;&lt;br&gt;Cloud Functions" style="editableCssRules=.*;html=1;fontColor=#999999;shape=image;verticalLabelPosition=middle;verticalAlign=middle;labelPosition=right;align=left;spacingLeft=20;part=1;points=[];imageAspect=0;image=data:image/svg+xml,PHN2ZyB4bWxucz0iaHR0cDovL3d3dy53My5vcmcvMjAwMC9zdmciIHhtbG5zOnY9Imh0dHBzOi8vdmVjdGEuaW8vbmFubyIgd2lkdGg9IjIwIiBoZWlnaHQ9IjE5Ljk4OTk5OTc3MTExODE2NCIgdmlld0JveD0iMCAwIDIwIDE5Ljk4OTk5OTc3MTExODE2NCI+JiN4YTsJPHN0eWxlIHR5cGU9InRleHQvY3NzIj4mI3hhOwkuc3Qwe2ZpbGw6IzQyODVmNDt9JiN4YTsJLnN0MXtmaWxsOiM2NjlkZjY7fSYjeGE7CS5zdDJ7ZmlsbDojYWVjYmZhO30mI3hhOwk8L3N0eWxlPiYjeGE7CTxwYXRoIGNsYXNzPSJzdDEiIGQ9Ik0zIDMuOTlMMCA2LjQydjcuMTNsMyAyLjQ0eiIvPiYjeGE7CTxwYXRoIGNsYXNzPSJzdDAiIGQ9Ik0zIDMuOTlsLTMgNCAzLTJ6bS0zIDhsMyA0di0yeiIvPiYjeGE7CTxwYXRoIGNsYXNzPSJzdDIiIGQ9Ik0wIDE1Ljk5bDQgNCAyLTItNi02em0uMDEtOEw1Ljk5IDJsLTItMkwwIDMuOTl6Ii8+JiN4YTsJPHBhdGggY2xhc3M9InN0MSIgZD0iTTE3IDE2bDMtMi40MlY2LjQ0TDE3IDR6Ii8+JiN4YTsJPHBhdGggY2xhc3M9InN0MCIgZD0iTTE3IDE2bDMtNC0zIDJ6bTMtOGwtMy00djJ6Ii8+JiN4YTsJPGcgY2xhc3M9InN0MiI+JiN4YTsJCTxwYXRoIGQ9Ik0yMCA0bC00LTQtMiAyIDYgNnptLS4wMSA4bC01Ljk4IDUuOTkgMiAyTDIwIDE2eiIvPiYjeGE7CQk8Y2lyY2xlIGN4PSI2IiBjeT0iOS45OSIgcj0iMSIvPiYjeGE7CQk8Y2lyY2xlIGN4PSIxMCIgY3k9IjkuOTkiIHI9IjEiLz4mI3hhOwkJPGNpcmNsZSBjeD0iMTMuOTkiIGN5PSI5Ljk5IiByPSIxIi8+JiN4YTsJPC9nPiYjeGE7PC9zdmc+;" vertex="1" parent="EUjgMUI1SETLFr9Kv4zJ-11">
          <mxGeometry width="30" height="24" relative="1" as="geometry">
            <mxPoint x="15" y="18" as="offset" />
          </mxGeometry>
        </mxCell>
        <mxCell id="EUjgMUI1SETLFr9Kv4zJ-15" value="" style="strokeColor=#dddddd;shadow=1;strokeWidth=1;rounded=1;absoluteArcSize=1;arcSize=2;" vertex="1" parent="1">
          <mxGeometry x="560" y="270" width="130" height="60" as="geometry" />
        </mxCell>
        <mxCell id="EUjgMUI1SETLFr9Kv4zJ-16" value="&lt;font color=&quot;#000000&quot;&gt;Persist Data&lt;/font&gt;&lt;br&gt;Cloud SQL" style="editableCssRules=.*;html=1;fontColor=#999999;shape=image;verticalLabelPosition=middle;verticalAlign=middle;labelPosition=right;align=left;spacingLeft=20;part=1;points=[];imageAspect=0;image=data:image/svg+xml,PHN2ZyB4bWxucz0iaHR0cDovL3d3dy53My5vcmcvMjAwMC9zdmciIHhtbG5zOnY9Imh0dHBzOi8vdmVjdGEuaW8vbmFubyIgd2lkdGg9IjE0LjY1OTk5OTg0NzQxMjExIiBoZWlnaHQ9IjIwIiB2aWV3Qm94PSIwIDAgMTQuNjU5OTk5ODQ3NDEyMTEgMjAiPiYjeGE7CTxzdHlsZSB0eXBlPSJ0ZXh0L2NzcyI+JiN4YTsJLnN0MHtmaWxsOiM0Mjg1ZjQ7fSYjeGE7CS5zdDF7ZmlsbDojNjY5ZGY2O30mI3hhOwkuc3Qye2ZpbGw6I2FlY2JmYTt9JiN4YTsJPC9zdHlsZT4mI3hhOwk8c3R5bGU+JiN4YTsJCS5Ee2ZpbGwtcnVsZTpldmVub2RkfSYjeGE7CTwvc3R5bGU+JiN4YTsJPHBhdGggZD0iTTcuMzMgMTUuMzV2LTMuMDFMMCA4LjQ0djMuMDF6bTAgNC42NXYtMy4wMUwwIDEzLjA5djMuMDF6IiBjbGFzcz0ic3QyIEQiLz4mI3hhOwk8cGF0aCBkPSJNMTQuNjYgOC40NGwtNy4zMyAzLjl2My4wMWw3LjMzLTMuOXptMCA0LjY1bC03LjMzIDMuOVYyMGw3LjMzLTMuOXoiIGNsYXNzPSJzdDEgRCIvPiYjeGE7CTxwYXRoIGQ9Ik03LjMzIDB2My4wMWw3LjMzIDMuOVYzLjl6IiBjbGFzcz0ic3QwIEQiLz4mI3hhOwk8cGF0aCBkPSJNMCA2LjkxbDcuMzMtMy45VjBMMCAzLjl6IiBjbGFzcz0iRCBzdDEiLz4mI3hhOwk8cGF0aCBkPSJNNy4zMyAxMC43OVY3Ljc3TDAgMy44N3YzLjAyeiIgY2xhc3M9IkQgc3QyIi8+JiN4YTsJPHBhdGggZD0iTTE0LjY2IDMuODdsLTcuMzMgMy45djMuMDJsNy4zMy0zLjl6IiBjbGFzcz0iRCBzdDEiLz4mI3hhOzwvc3ZnPg==;" vertex="1" parent="EUjgMUI1SETLFr9Kv4zJ-15">
          <mxGeometry width="22" height="30" relative="1" as="geometry">
            <mxPoint x="19" y="15" as="offset" />
          </mxGeometry>
        </mxCell>
        <mxCell id="EUjgMUI1SETLFr9Kv4zJ-24" value="" style="strokeColor=#dddddd;shadow=1;strokeWidth=1;rounded=1;absoluteArcSize=1;arcSize=2;" vertex="1" parent="1">
          <mxGeometry x="565" y="360" width="120" height="60" as="geometry" />
        </mxCell>
        <mxCell id="EUjgMUI1SETLFr9Kv4zJ-25" value="Logging" style="editableCssRules=.*;html=1;fontColor=#999999;shape=image;verticalLabelPosition=middle;verticalAlign=middle;labelPosition=right;align=left;spacingLeft=20;part=1;points=[];imageAspect=0;image=data:image/svg+xml,PHN2ZyB4bWxucz0iaHR0cDovL3d3dy53My5vcmcvMjAwMC9zdmciIHhtbG5zOnY9Imh0dHBzOi8vdmVjdGEuaW8vbmFubyIgd2lkdGg9IjIwIiBoZWlnaHQ9IjE5IiB2aWV3Qm94PSIwIDAgMjAgMTkiPiYjeGE7CTxzdHlsZSB0eXBlPSJ0ZXh0L2NzcyI+JiN4YTsJLnN0MHtmaWxsOiM0Mjg1ZjQ7fSYjeGE7CS5zdDF7ZmlsbDojNjY5ZGY2O30mI3hhOwkuc3Qye2ZpbGw6I2FlY2JmYTt9JiN4YTsJPC9zdHlsZT4mI3hhOwk8ZyBjbGFzcz0ic3QwIj4mI3hhOwkJPHBhdGggZD0iTTQgOWg0djJINHptLTIgN2g2djJIMnoiLz4mI3hhOwkJPHBhdGggZD0iTTQgNEgydjEyaDJ6Ii8+JiN4YTsJPC9nPiYjeGE7CTxwYXRoIGNsYXNzPSJzdDEiIGQ9Ik0yMCAxSDd2NGgxM3ptMCA3SDd2NGgxM3ptMCA3SDd2NGgxM3oiLz4mI3hhOwk8cGF0aCBjbGFzcz0ic3QyIiBkPSJNNiAwSDB2Nmg2eiIvPiYjeGE7PC9zdmc+;" vertex="1" parent="EUjgMUI1SETLFr9Kv4zJ-24">
          <mxGeometry width="30" height="28" relative="1" as="geometry">
            <mxPoint x="15" y="16" as="offset" />
          </mxGeometry>
        </mxCell>
        <mxCell id="EUjgMUI1SETLFr9Kv4zJ-27" value="Google Cloud Project" style="text;html=1;align=center;verticalAlign=middle;resizable=0;points=[];autosize=1;strokeColor=none;fillColor=none;" vertex="1" parent="1">
          <mxGeometry x="190" y="30" width="140" height="30" as="geometry" />
        </mxCell>
        <mxCell id="EUjgMUI1SETLFr9Kv4zJ-29" style="edgeStyle=orthogonalEdgeStyle;rounded=0;orthogonalLoop=1;jettySize=auto;html=1;entryX=0;entryY=0.5;entryDx=0;entryDy=0;" edge="1" parent="1" source="EUjgMUI1SETLFr9Kv4zJ-28" target="EUjgMUI1SETLFr9Kv4zJ-5">
          <mxGeometry relative="1" as="geometry" />
        </mxCell>
        <mxCell id="EUjgMUI1SETLFr9Kv4zJ-30" value="web" style="edgeLabel;html=1;align=center;verticalAlign=middle;resizable=0;points=[];" vertex="1" connectable="0" parent="EUjgMUI1SETLFr9Kv4zJ-29">
          <mxGeometry x="0.05" y="-1" relative="1" as="geometry">
            <mxPoint as="offset" />
          </mxGeometry>
        </mxCell>
        <mxCell id="EUjgMUI1SETLFr9Kv4zJ-31" style="edgeStyle=orthogonalEdgeStyle;rounded=0;orthogonalLoop=1;jettySize=auto;html=1;" edge="1" parent="1" source="EUjgMUI1SETLFr9Kv4zJ-28" target="EUjgMUI1SETLFr9Kv4zJ-7">
          <mxGeometry relative="1" as="geometry" />
        </mxCell>
        <mxCell id="EUjgMUI1SETLFr9Kv4zJ-32" value="login" style="edgeLabel;html=1;align=center;verticalAlign=middle;resizable=0;points=[];" vertex="1" connectable="0" parent="EUjgMUI1SETLFr9Kv4zJ-31">
          <mxGeometry x="0.4431" y="3" relative="1" as="geometry">
            <mxPoint as="offset" />
          </mxGeometry>
        </mxCell>
        <mxCell id="EUjgMUI1SETLFr9Kv4zJ-33" style="edgeStyle=orthogonalEdgeStyle;rounded=0;orthogonalLoop=1;jettySize=auto;html=1;entryX=0;entryY=0.5;entryDx=0;entryDy=0;" edge="1" parent="1" source="EUjgMUI1SETLFr9Kv4zJ-28" target="EUjgMUI1SETLFr9Kv4zJ-9">
          <mxGeometry relative="1" as="geometry" />
        </mxCell>
        <mxCell id="EUjgMUI1SETLFr9Kv4zJ-34" value="browser requests" style="edgeLabel;html=1;align=center;verticalAlign=middle;resizable=0;points=[];" vertex="1" connectable="0" parent="EUjgMUI1SETLFr9Kv4zJ-33">
          <mxGeometry x="-0.05" y="-1" relative="1" as="geometry">
            <mxPoint as="offset" />
          </mxGeometry>
        </mxCell>
        <mxCell id="EUjgMUI1SETLFr9Kv4zJ-28" value="Actor" style="shape=umlActor;verticalLabelPosition=bottom;verticalAlign=top;html=1;outlineConnect=0;" vertex="1" parent="1">
          <mxGeometry x="10" y="180" width="30" height="60" as="geometry" />
        </mxCell>
        <mxCell id="EUjgMUI1SETLFr9Kv4zJ-35" value="" style="strokeColor=#dddddd;shadow=1;strokeWidth=1;rounded=1;absoluteArcSize=1;arcSize=2;" vertex="1" parent="1">
          <mxGeometry x="354" y="80" width="120" height="60" as="geometry" />
        </mxCell>
        <mxCell id="EUjgMUI1SETLFr9Kv4zJ-36" value="&lt;font color=&quot;#000000&quot;&gt;Storage&lt;/font&gt;&lt;br&gt;Firebase&lt;div&gt;Static Content&lt;/div&gt;" style="sketch=0;dashed=0;connectable=0;html=1;fillColor=#5184F3;strokeColor=none;shape=mxgraph.gcp2.firebase;part=1;labelPosition=right;verticalLabelPosition=middle;align=left;verticalAlign=middle;spacingLeft=5;fontColor=#999999;fontSize=12;" vertex="1" parent="EUjgMUI1SETLFr9Kv4zJ-35">
          <mxGeometry width="32.4" height="45" relative="1" as="geometry">
            <mxPoint x="5" y="7" as="offset" />
          </mxGeometry>
        </mxCell>
      </root>
    </mxGraphModel>
  </diagram>
</mxfile>
